<?xml version="1.0" encoding="UTF-8"?>
<svg id="Layer_1" xmlns="http://www.w3.org/2000/svg" xmlns:xlink="http://www.w3.org/1999/xlink" version="1.1" viewBox="0 0 70 70">
  <!-- Generator: Adobe Illustrator 30.1.0, SVG Export Plug-In . SVG Version: 2.1.1 Build 136)  -->
  <defs>
    <style>
      .st0 {
        fill: url(#linear-gradient);
      }
    </style>
    <linearGradient id="linear-gradient" x1="2.94" y1="36.79" x2="66.61" y2="36.79" gradientTransform="translate(0 72) scale(1 -1)" gradientUnits="userSpaceOnUse">
      <stop offset="0" stop-color="#ec1f32"/>
      <stop offset="1" stop-color="#201f53"/>
    </linearGradient>
  </defs>
  <path class="st0" d="M66.61,33.72c0,8.38-3.41,16.29-9.6,22.29-6.13,5.93-14.15,9.19-22.59,9.19-17.3,0-31.42-14.12-31.48-31.47-.02-7.92,2.99-15.49,8.26-20.78,5.05-5.06,11.71-7.74,19.24-7.74,11.96,0,21.71,9.73,21.71,21.71l-.07,12.15c0,5.71-4.57,10.35-10.2,10.35-3.19,0-6.04-1.5-7.91-3.83-1.86,2.45-4.78,4.03-8.06,4.03-5.62,0-10.2-4.64-10.2-10.35v-13.72c0-1.24,1-2.23,2.23-2.23.62,0,1.17.25,1.58.65.4.41.65.97.65,1.58v13.72c0,3.25,2.58,5.89,5.74,5.89s5.74-2.64,5.74-5.89v-13.72c0-.2.03-.39.08-.58.18-1.06,1.09-1.86,2.2-1.86.62,0,1.17.25,1.58.66.41.4.66.96.66,1.58v13.72c0,3.25,2.57,5.89,5.73,5.89s5.74-2.64,5.74-5.89v-12.15c0-9.48-7.71-17.18-17.18-17.18-6.32,0-11.86,2.22-16.04,6.41-4.43,4.44-6.96,10.85-6.93,17.57.05,14.87,12.13,26.96,26.95,26.96s27.67-12.34,27.67-26.96c0-7.29-2.87-14.12-8.06-19.23-.89-.87-.9-2.31-.03-3.19.88-.89,2.31-.9,3.2-.03,6.07,5.96,9.42,13.94,9.42,22.45h0Z"/>
</svg>