<svg width="78" height="67" viewBox="0 0 78 67" fill="none" xmlns="http://www.w3.org/2000/svg">
<path d="M64.8485 50.9092C60.6061 50.9092 57.2121 54.3031 57.2121 58.5455C57.2121 62.788 60.6061 66.1819 64.8485 66.1819C69.0909 66.1819 72.4849 62.788 72.4849 58.5455C72.4849 54.3031 68.9697 50.9092 64.8485 50.9092Z" fill="white"/>
<path d="M32.3636 54.7878C29.2121 54.7878 26.6667 57.3333 26.6667 60.4848C26.6667 63.6363 29.2121 66.1818 32.3636 66.1818C35.5152 66.1818 38.0606 63.6363 38.0606 60.4848C38.0606 57.4545 35.5152 54.7878 32.3636 54.7878Z" fill="white"/>
<path d="M15.5151 54.7878C12.3636 54.7878 9.81818 57.3333 9.81818 60.4848C9.81818 63.6363 12.3636 66.1818 15.5151 66.1818C18.6667 66.1818 21.2121 63.6363 21.2121 60.4848C21.2121 57.4545 18.6667 54.7878 15.5151 54.7878Z" fill="white"/>
<path d="M74.1818 23.7576C73.9394 21.9394 72.3636 20.4849 70.4242 20.4849H51.3939C50.7879 20.4849 50.1818 21.0909 50.1818 21.697V45.697H1.21212C0.484848 45.697 0 46.303 0 46.9091V58.5455C0 59.1515 0.484848 59.7576 1.21212 59.7576H7.51515C7.87879 55.6364 11.3939 52.3637 15.6364 52.3637C19.8788 52.3637 23.3939 55.7576 23.7576 59.7576H24.4848C24.8485 55.6364 28.3636 52.3637 32.6061 52.3637C36.7273 52.3637 40.3636 55.6364 40.6061 59.7576H55.0303C54.303 53.8182 59.0303 48.4849 64.9697 48.4849C70.5455 48.4849 75.0303 52.9697 75.0303 58.5455C75.0303 58.9091 75.0303 59.394 74.9091 59.7576H76.3636C76.9697 59.7576 77.5758 59.1515 77.5758 58.5455C77.697 46.303 77.9394 52 74.1818 23.7576ZM59.6364 46.303H56.1212C55.3939 46.303 54.9091 45.697 54.9091 45.0909C54.9091 44.3637 55.3939 43.8788 56.1212 43.8788H59.6364C60.3636 43.8788 60.8485 44.3637 60.8485 45.0909C60.8485 45.697 60.2424 46.303 59.6364 46.303ZM71.6364 43.1515C71.2727 43.5152 70.9091 43.5152 70.5455 43.5152L56 41.3333C55.3939 41.2121 55.0303 40.7273 55.0303 40.1212V26.303C55.0303 25.5758 55.5152 25.0909 56.2424 25.0909H68.7273C69.3333 25.0909 69.8182 25.5758 69.9394 26.1818L72.1212 42.1818C72 42.5455 71.8788 42.9091 71.6364 43.1515Z" fill="white"/>
<path d="M2.78788 43.1515H22.5455C23.2727 43.1515 23.7576 42.6666 23.7576 41.9394V24C23.7576 23.2727 23.2727 22.7878 22.5455 22.7878H2.78788C2.06061 22.7878 1.57576 23.2727 1.57576 24V41.9394C1.57576 42.6666 2.06061 43.1515 2.78788 43.1515ZM9.09091 29.3333H16C16.7273 29.3333 17.2121 29.9394 17.2121 30.5454C17.2121 31.2727 16.7273 31.7575 16 31.7575H9.09091C8.36364 31.7575 7.87879 31.2727 7.87879 30.5454C7.87879 29.9394 8.48485 29.3333 9.09091 29.3333ZM9.09091 35.1515H16C16.7273 35.1515 17.2121 35.7575 17.2121 36.3636C17.2121 37.0909 16.7273 37.5757 16 37.5757H9.09091C8.36364 37.5757 7.87879 37.0909 7.87879 36.3636C7.87879 35.6363 8.48485 35.1515 9.09091 35.1515Z" fill="white"/>
<path d="M13.3333 20.3636H33.0909C33.8182 20.3636 34.303 19.7576 34.303 19.1515V1.21212C34.303 0.484848 33.8182 0 33.0909 0H13.3333C12.7273 0 12.1212 0.484848 12.1212 1.21212V19.1515C12.1212 19.8788 12.7273 20.3636 13.3333 20.3636ZM19.7576 6.54546H26.6667C27.3939 6.54546 27.8788 7.15152 27.8788 7.75758C27.8788 8.48485 27.3939 8.9697 26.6667 8.9697H19.6364C19.0303 8.9697 18.4242 8.48485 18.4242 7.75758C18.5455 7.15152 19.0303 6.54546 19.7576 6.54546ZM19.7576 12.3636H26.6667C27.3939 12.3636 27.8788 12.8485 27.8788 13.5758C27.8788 14.303 27.3939 14.7879 26.6667 14.7879H19.6364C19.0303 14.7879 18.4242 14.303 18.4242 13.5758C18.5455 12.8485 19.0303 12.3636 19.7576 12.3636Z" fill="white"/>
<path d="M26.1818 24V41.9394C26.1818 42.6666 26.6667 43.1515 27.3939 43.1515H47.1515C47.7576 43.1515 48.3636 42.6666 48.3636 41.9394V24C48.3636 23.2727 47.7576 22.7878 47.1515 22.7878H27.3939C26.6667 22.7878 26.1818 23.2727 26.1818 24ZM33.697 29.3333H40.7273C41.3333 29.3333 41.9394 29.9394 41.9394 30.5454C41.9394 31.2727 41.3333 31.7575 40.7273 31.7575H33.697C32.9697 31.7575 32.4849 31.2727 32.4849 30.5454C32.4849 29.9394 33.0909 29.3333 33.697 29.3333ZM33.697 35.1515H40.7273C41.3333 35.1515 41.9394 35.7575 41.9394 36.3636C41.9394 37.0909 41.3333 37.5757 40.7273 37.5757H33.697C32.9697 37.5757 32.4849 37.0909 32.4849 36.3636C32.4849 35.6363 33.0909 35.1515 33.697 35.1515Z" fill="white"/>
</svg>
