<svg width="78" height="76" viewBox="0 0 78 76" fill="none" xmlns="http://www.w3.org/2000/svg">
<path d="M68.4225 21.3755L69.8361 18.2592L34.9181 0L0 18.2592L1.41375 21.3755H68.4225ZM34.9181 6.42016C37.7175 6.42016 39.9869 8.68953 39.9869 11.4889C39.9869 14.2883 37.7175 16.5577 34.9181 16.5577C32.1188 16.5577 29.8495 14.2883 29.8495 11.4889C29.8494 8.68953 32.1188 6.42016 34.9181 6.42016ZM45.6177 62.7466C46.1012 64.3333 46.8339 65.8144 47.7991 67.1577H0L1.41375 62.7466H45.6177ZM63.5869 26.0561H6.24922L5.29875 23.8755H64.5372L63.5869 26.0561ZM53.1609 49.3438V58.0105C53.1609 60.5883 54.2119 62.6478 56.3061 64.153L62.3073 68.4662L68.3084 64.153C70.4028 62.6477 71.4539 60.5884 71.4539 58.0105V49.3438C64.5956 45.5647 60.0195 45.5647 53.1609 49.3438ZM63.5575 50.1133V50.8898C64.3825 51.0852 65.1159 51.5747 65.6133 52.2623C66.015 52.8206 65.8883 53.5988 65.3302 54.0006C64.7719 54.4023 63.9936 54.2756 63.5919 53.7175C63.3959 53.4464 63.1014 53.2973 62.7673 53.2973H62.0547C61.4997 53.2973 61.0411 53.7561 61.0411 54.3111C61.0411 54.8661 61.4998 55.3248 62.0547 55.3248H62.5608C64.4958 55.3248 66.0744 56.9034 66.0744 58.8384C66.0744 60.3942 65.0422 61.7664 63.5577 62.2077V63.0361C63.5577 63.7264 62.998 64.2861 62.3077 64.2861C61.6173 64.2861 61.0577 63.7264 61.0577 63.0361V62.2595C60.238 62.0655 59.4964 61.5753 59.002 60.8919C58.5977 60.3336 58.7222 59.5531 59.2803 59.1488C59.8386 58.7442 60.6191 58.8689 61.0234 59.427C61.2228 59.7028 61.5072 59.8519 61.848 59.8519H62.5606C63.1156 59.8519 63.5742 59.393 63.5742 58.8381C63.5742 58.2831 63.1155 57.8245 62.5606 57.8245H62.0545C60.1195 57.8245 58.5409 56.2458 58.5409 54.3108C58.5409 52.755 59.573 51.3828 61.0575 50.9417V50.1131C61.0575 49.4228 61.6172 48.8631 62.3075 48.8631C62.9978 48.8633 63.5575 49.423 63.5575 50.1133ZM53.2209 28.5561H61.2533L61.6466 38.262C58.7514 38.3561 55.8423 39.0687 52.7409 40.3986L53.2209 28.5561ZM31.4945 28.5561L32.593 55.6631H22.3638L23.4622 28.5561H31.4945ZM46.095 43.9664L44.9275 44.7019V55.6631H37.2431L38.3416 28.5561H46.3739L46.9762 43.4216C46.6845 43.5991 46.3913 43.7797 46.095 43.9664ZM5.54234 58.1631H44.9284C44.9347 58.8708 44.9838 59.5659 45.075 60.2467H4.67469L5.54234 58.1631ZM47.4273 46.0817V58.0105C47.4273 62.427 49.3756 66.2267 52.9619 68.8044L62.3075 75.5212L71.6528 68.8044C75.2394 66.2267 77.1875 62.427 77.1875 58.0105V46.0817C65.9081 38.9769 58.7067 38.9769 47.4273 46.0817ZM73.9541 58.0105C73.9541 61.3772 72.4967 64.2102 69.7636 66.1745L63.0572 70.9947C62.6331 71.3147 62.0337 71.3373 61.5798 71.0108L54.8511 66.1745C52.118 64.2103 50.6609 61.3772 50.6609 58.0105V48.6134C50.6613 48.1805 50.8881 47.7598 51.2908 47.5294C59.4437 42.8625 65.1092 42.8408 73.2708 47.4991C73.6763 47.7056 73.9541 48.1272 73.9541 48.6134V58.0105ZM16.6152 28.5561L17.7136 55.6631H7.48438L8.58281 28.5561H16.6152Z" fill="white"/>
</svg>
