<svg width="78" height="76" viewBox="0 0 78 76" fill="none" xmlns="http://www.w3.org/2000/svg">
<path d="M77.7721 46.1189V52.0277C77.7721 53.2444 76.7824 54.2337 75.5661 54.2337H2.20603C0.989772 54.2337 0 53.2444 0 52.0277V46.1189H77.7721Z" fill="white"/>
<path d="M75.5661 0H2.20603C0.989772 0 0 0.989772 0 2.20658V44.4097H77.7721V2.20658C77.7721 0.989772 76.7824 0 75.5661 0ZM33.0607 35.9135C32.4672 36.5705 31.6195 36.9476 30.7339 36.9476H10.0516C9.16603 36.9476 8.31833 36.5705 7.72491 35.9135C7.13149 35.2565 6.84304 34.3746 6.93332 33.4938L8.84395 14.8312C8.8883 14.3948 9.2558 14.0631 9.69377 14.0631H13.4772V12.0915C13.4772 8.27828 16.5795 5.1759 20.3928 5.1759C24.2061 5.1759 27.3085 8.27823 27.3085 12.0915V14.0631H31.0913C31.5298 14.0631 31.8973 14.3948 31.9417 14.8312L33.8523 33.4938C33.9425 34.3746 33.6536 35.2566 33.0607 35.9135ZM63.0114 36.9476H50.8371C50.3649 36.9476 49.9825 36.5647 49.9825 36.093C49.9825 35.6208 50.3649 35.2384 50.8371 35.2384H63.0114C63.4836 35.2384 63.8661 35.6208 63.8661 36.093C63.8661 36.5647 63.4836 36.9476 63.0114 36.9476ZM70.0008 30.4177H43.8478C43.3756 30.4177 42.9932 30.0352 42.9932 29.563C42.9932 29.0908 43.3756 28.7084 43.8478 28.7084H70.0008C70.473 28.7084 70.8554 29.0908 70.8554 29.563C70.8554 30.0352 70.473 30.4177 70.0008 30.4177ZM70.8554 18.3481C70.8554 18.8203 70.473 19.2027 70.0008 19.2027H43.8478C43.3756 19.2027 42.9932 18.8203 42.9932 18.3481V10.0281C42.9932 9.5559 43.3756 9.17347 43.8478 9.17347H70.0008C70.473 9.17347 70.8554 9.5559 70.8554 10.0281V18.3481Z" fill="white"/>
<path d="M25.5991 12.0916V14.0632H15.1864V12.0916C15.1864 9.2206 17.5217 6.88525 20.3928 6.88525C23.2639 6.88525 25.5991 9.2206 25.5991 12.0916Z" fill="white"/>
<path d="M54.8262 75.7403H20.154C20.5743 72.5087 23.345 70.0046 26.6893 70.0046H48.2914C51.6357 70.0046 54.4058 72.5087 54.8262 75.7403Z" fill="white"/>
<path d="M45.869 68.2953H29.1117L31.5639 55.9431H43.4167L45.869 68.2953Z" fill="white"/>
<path d="M31.792 34.7684C31.518 35.0713 31.1425 35.2385 30.7339 35.2385H10.0516C9.64303 35.2385 9.26748 35.0713 8.99351 34.7684C8.72004 34.465 8.59184 34.0745 8.63351 33.6681L10.4657 15.7725H13.4772V17.8653C13.4772 18.3369 13.8596 18.7199 14.3318 18.7199C14.8035 18.7199 15.1865 18.3369 15.1865 17.8653V15.7725H25.5992V17.8653C25.5992 18.3369 25.9822 18.7199 26.4538 18.7199C26.926 18.7199 27.3084 18.3369 27.3084 17.8653V15.7725H30.32L32.1516 33.6681C32.1932 34.0746 32.0655 34.465 31.792 34.7684Z" fill="white"/>
<path d="M44.7024 10.8828H69.1461V17.4934H44.7024V10.8828Z" fill="white"/>
</svg>
