<svg width="76" height="76" viewBox="0 0 76 76" fill="none" xmlns="http://www.w3.org/2000/svg">
<path d="M3.29697 15.8061L2.18182 17.5515L4.18182 19.5515L5.92727 18.4364C6.84848 19.0424 7.89091 19.4788 9.00606 19.7091L9.45455 21.7212H12.2909L12.7394 19.7091C13.8545 19.4788 14.897 19.0303 15.8182 18.4364L17.5636 19.5515L19.5636 17.5515L18.4485 15.8061C19.0545 14.8848 19.4909 13.8424 19.7333 12.7273L21.7455 12.2788V9.45455L19.7333 9.00606C19.503 7.89091 19.0545 6.84848 18.4485 5.92727L19.5636 4.18182L17.5515 2.18182L15.8061 3.29697C14.8848 2.69091 13.8424 2.25455 12.7273 2.01212L12.2788 0H9.45455L9.00606 2.01212C7.89091 2.24242 6.84848 2.69091 5.92727 3.29697L4.18182 2.18182L2.18182 4.18182L3.29697 5.92727C2.69091 6.84848 2.25455 7.89091 2.01212 9.00606L0 9.45455V12.2909L2.01212 12.7394C2.24242 13.8424 2.69091 14.8848 3.29697 15.8061ZM10.8606 6.47273C13.2848 6.47273 15.2606 8.43636 15.2606 10.8727C15.2606 13.3091 13.297 15.2727 10.8606 15.2727C8.43636 15.2727 6.46061 13.3091 6.46061 10.8727C6.46061 8.43636 8.43636 6.47273 10.8606 6.47273Z" fill="white"/>
<path d="M36.9576 40.1817V33.7817H28.4485V40.1817L32.703 38.0848L36.9576 40.1817Z" fill="white"/>
<path d="M57.8303 41.6121C56.1091 41.6121 54.7151 43.006 54.7151 44.7272V55.6242H72.3151V44.7272C72.3151 43.006 70.9212 41.6121 69.2 41.6121H57.8303Z" fill="white"/>
<path d="M63.9739 28.6972C67.2476 28.4644 69.7126 25.6217 69.4797 22.348C69.2468 19.0744 66.4042 16.6093 63.1305 16.8422C59.8568 17.0751 57.3918 19.9178 57.6247 23.1914C57.8576 26.4651 60.7002 28.9301 63.9739 28.6972Z" fill="white"/>
<path d="M38.0727 13.8908C40.7505 13.8908 42.9212 11.7201 42.9212 9.04233C42.9212 6.36459 40.7505 4.19385 38.0727 4.19385C35.395 4.19385 33.2242 6.36459 33.2242 9.04233C33.2242 11.7201 35.395 13.8908 38.0727 13.8908Z" fill="white"/>
<path d="M32.703 28.8242C34.7114 28.8242 36.3394 27.1962 36.3394 25.1879C36.3394 23.1796 34.7114 21.5515 32.703 21.5515C30.6947 21.5515 29.0667 23.1796 29.0667 25.1879C29.0667 27.1962 30.6947 28.8242 32.703 28.8242Z" fill="white"/>
<path d="M49.0303 35.2122C49.7091 35.2122 50.2424 34.6789 50.2424 34.0001V27.6122C50.2424 25.6122 48.6182 23.9758 46.6061 23.9758H38.6303C38.7152 24.3637 38.7515 24.7758 38.7515 25.188C38.7515 25.6001 38.7152 26.0122 38.6303 26.4001H46.6061C47.2849 26.4001 47.8182 26.9455 47.8182 27.6122V34.0001C47.8182 34.6789 48.3636 35.2122 49.0303 35.2122Z" fill="white"/>
<path d="M18.7758 23.9758C16.7758 23.9758 15.1394 25.6122 15.1394 27.6122V34.0001C15.1394 34.6789 15.6849 35.2122 16.3515 35.2122C17.0303 35.2122 17.5636 34.6789 17.5636 34.0001V27.6122C17.5636 26.9455 18.1091 26.4001 18.7758 26.4001H26.7515C26.6667 26.0122 26.6303 25.6001 26.6303 25.188C26.6303 24.7758 26.6667 24.3637 26.7515 23.9758H18.7758Z" fill="white"/>
<path d="M72.7273 58.0486H2.42424C1.09091 58.0486 0 59.1395 0 60.4728V72.7274C0 74.0607 1.09091 75.1516 2.42424 75.1516H72.7273C74.0606 75.1516 75.1515 74.0607 75.1515 72.7274V60.4728C75.1515 59.1274 74.0606 58.0486 72.7273 58.0486ZM8.55758 70.3031C6.50909 70.3031 4.84848 68.6425 4.84848 66.594C4.84848 64.5456 6.50909 62.8849 8.55758 62.8849C10.6061 62.8849 12.2667 64.5456 12.2667 66.594C12.2667 68.6425 10.5939 70.3031 8.55758 70.3031ZM23.0667 70.3031C21.0182 70.3031 19.3576 68.6425 19.3576 66.594C19.3576 64.5456 21.0182 62.8849 23.0667 62.8849C25.1152 62.8849 26.7758 64.5456 26.7758 66.594C26.7758 68.6425 25.1152 70.3031 23.0667 70.3031ZM37.5758 70.3031C35.5273 70.3031 33.8667 68.6425 33.8667 66.594C33.8667 64.5456 35.5273 62.8849 37.5758 62.8849C39.6242 62.8849 41.2849 64.5456 41.2849 66.594C41.2849 68.6425 39.6242 70.3031 37.5758 70.3031ZM52.0849 70.3031C50.0364 70.3031 48.3758 68.6425 48.3758 66.594C48.3758 64.5456 50.0364 62.8849 52.0849 62.8849C54.1333 62.8849 55.7939 64.5456 55.7939 66.594C55.7939 68.6425 54.1333 70.3031 52.0849 70.3031ZM66.5939 70.3031C64.5455 70.3031 62.8849 68.6425 62.8849 66.594C62.8849 64.5456 64.5455 62.8849 66.5939 62.8849C68.6424 62.8849 70.303 64.5577 70.303 66.594C70.303 68.6304 68.6424 70.3031 66.5939 70.3031Z" fill="white"/>
<path d="M20.8727 33.7817C20.2061 33.7817 19.6606 34.3272 19.6606 34.9939V54.412C19.6606 55.0787 20.2061 55.6242 20.8727 55.6242H44.5212C45.1879 55.6242 45.7333 55.0787 45.7333 54.412V34.9939C45.7333 34.3272 45.1879 33.7817 44.5212 33.7817H39.3697V44.0969L32.6909 40.7878L26.0121 44.0969V33.7817H20.8727Z" fill="white"/>
<path d="M63.5152 31.1273C62.1818 31.1273 60.9212 30.8 59.7939 30.2424V39.1758H67.2364V30.2424C66.1091 30.8121 64.8485 31.1273 63.5152 31.1273Z" fill="white"/>
<path d="M59.3091 15.5394L45.3333 9.34546C45.2606 11.2 44.4849 12.8727 43.2727 14.1212L55.2243 21.6606C55.5758 19.0424 57.1273 16.8121 59.3091 15.5394Z" fill="white"/>
<path d="M37.6849 16.2908C36.3879 16.2181 35.1879 15.8181 34.1697 15.1636L33.0182 19.1636C34.1091 19.2242 35.1394 19.5515 36 20.1212L37.6849 16.2908Z" fill="white"/>
</svg>
