<svg width="78" height="80" viewBox="0 0 78 80" fill="none" xmlns="http://www.w3.org/2000/svg">
<path d="M75.3474 8.00146H71.9985V43.7931C71.9985 45.6355 70.5104 47.1318 68.6682 47.142C68.4649 47.1424 68.2619 47.1238 68.062 47.0868C64.7174 46.4661 61.3236 46.1499 57.922 46.1424C51.5734 46.1017 45.2803 47.326 39.4099 49.7441L39.1002 49.8731H37.9901L37.6821 49.7458C31.7949 47.3276 25.4859 46.1022 19.1216 46.1409C15.7126 46.1478 12.3113 46.4643 8.9597 47.087C8.75905 47.1235 8.5557 47.1418 8.35196 47.1422C6.51039 47.1312 5.02319 45.6351 5.02319 43.7933V8.00146H1.67433C0.749683 8.00146 0 8.75115 0 9.6758V52.4429C0.000386236 53.3675 0.750262 54.117 1.67491 54.1166C1.8605 54.1166 2.04473 54.0857 2.22008 54.0251C7.65519 52.1281 22.2591 48.2518 36.9083 54.8841C36.9753 54.9142 40.1851 54.8841 40.1851 54.8841C54.7775 48.2518 69.3679 52.1281 74.8015 54.0251C75.6757 54.3266 76.6287 53.8623 76.9302 52.9881C76.9906 52.8127 77.0215 52.6285 77.0217 52.4429V9.6758C77.0217 8.75115 76.272 8.00146 75.3474 8.00146Z" fill="white"/>
<path d="M69.281 2.52608C65.8033 1.13641 53.9152 -2.62089 38.5108 2.97817C38.5108 2.97817 20.9649 -3.40128 7.6685 2.51933C7.07215 2.79529 6.69248 3.39434 6.69731 4.05133V43.7946C6.69287 44.7128 7.43348 45.461 8.35175 45.4654C8.45391 45.466 8.55588 45.4569 8.6563 45.4388C12.1079 44.7984 15.6107 44.4726 19.1212 44.466C25.7063 44.4263 32.2339 45.695 38.3248 48.1982H38.7636C44.8383 45.6933 51.3512 44.4245 57.9218 44.466C61.4251 44.473 64.9206 44.7986 68.365 45.4388C69.2686 45.6025 70.1338 45.0027 70.2974 44.0991C70.3157 43.9981 70.3246 43.8956 70.324 43.7928V4.07817C70.3288 3.3955 69.915 2.77965 69.281 2.52608ZM36.3459 34.3009C35.692 34.9546 34.6322 34.9546 33.9783 34.3009C32.7777 33.102 25.0203 29.8654 13.8554 33.0518C12.9593 33.2801 12.0478 32.7388 11.8194 31.8427C11.6004 30.9833 12.0894 30.1023 12.9344 29.8337C25.3382 26.2908 34.1992 29.7918 36.3457 31.9335C36.9996 32.5872 36.9996 33.647 36.3459 34.3009ZM36.3459 25.9289C35.692 26.5826 34.6322 26.5826 33.9783 25.9289C32.7777 24.73 25.0203 21.4933 13.8554 24.6798C12.9593 24.908 12.0478 24.3667 11.8194 23.4707C11.6004 22.6113 12.0894 21.7303 12.9344 21.4617C25.3382 17.917 34.1992 21.4198 36.3457 23.5614C36.9996 24.2151 36.9996 25.2752 36.3459 25.9289ZM36.3459 17.557C35.692 18.2107 34.6322 18.2107 33.9783 17.557C32.7777 16.3581 25.0203 13.1182 13.8554 16.3079C12.9593 16.5362 12.0478 15.9949 11.8194 15.0988C11.6004 14.2394 12.0894 13.3584 12.9344 13.0898C25.3382 9.54514 34.1992 13.0464 36.3457 15.1896C36.9996 15.8433 36.9996 16.9031 36.3459 17.557ZM65.2357 31.9032C64.981 32.7915 64.0548 33.3056 63.1663 33.0518C52.0031 29.8704 44.2458 33.1003 43.0434 34.3009C42.3783 34.9434 41.3183 34.9249 40.6758 34.2598C40.0491 33.6109 40.0491 32.5822 40.6758 31.9333C42.819 29.7918 51.6866 26.2923 64.0871 29.8335C64.9756 30.0882 65.4897 31.0146 65.2357 31.9032ZM65.2357 23.5313C64.981 24.4197 64.0548 24.9337 63.1663 24.68C52.0031 21.4885 44.2458 24.7284 43.0434 25.9291C42.3783 26.5716 41.3183 26.553 40.6758 25.8879C40.0491 25.239 40.0491 24.2103 40.6758 23.5614C42.819 21.42 51.6866 17.9205 64.0871 21.4617C64.9756 21.7164 65.4897 22.6426 65.2357 23.5313ZM65.2357 15.1593C64.981 16.0476 64.0548 16.5617 63.1663 16.3079C52.0031 13.1265 44.2458 16.3564 43.0434 17.557C42.3783 18.1995 41.3183 18.181 40.6758 17.5159C40.0491 16.867 40.0491 15.8383 40.6758 15.1894C42.819 13.0479 51.6866 9.54669 64.0871 13.0896C64.9756 13.3443 65.4897 14.2707 65.2357 15.1593Z" fill="white"/>
<path d="M36.8364 68.2793V66.605C36.8364 62.906 33.8379 59.9075 30.1389 59.9075H26.79V68.2793H36.8364Z" fill="white"/>
<path d="M26.7903 80H30.1391C33.8381 80 36.8367 77.0015 36.8367 73.3025V71.6282H26.7903V80Z" fill="white"/>
<path d="M23.4414 59.9075H16.7439C13.0449 59.9075 10.0464 62.906 10.0464 66.605V73.3025C10.0464 77.0015 13.0449 80 16.7439 80H23.4414V59.9075Z" fill="white"/>
<path d="M62.7896 59.9075H50.9348C49.5766 59.9144 48.4614 58.8357 48.4233 57.4779L48.3395 54.8843H44.9907L45.0795 57.5868C45.1703 60.752 47.7683 63.2675 50.9348 63.2563H62.7896C64.1767 63.2563 65.3011 64.3808 65.3011 65.7678C65.3011 67.1548 64.1765 68.2793 62.7896 68.2793H38.511V71.6282H62.7896C66.0262 71.6282 68.6499 69.0045 68.6499 65.7678C68.6499 62.5312 66.026 59.9075 62.7896 59.9075Z" fill="white"/>
</svg>
