<svg width="80" height="79" viewBox="0 0 80 79" fill="none" xmlns="http://www.w3.org/2000/svg">
<path d="M42.7953 31.9439C44.482 27.8987 44.6031 23.3706 43.1351 19.241C41.6671 15.1114 38.7151 11.6757 34.8535 9.60283C30.9919 7.52993 26.4972 6.96807 22.2442 8.02661C17.9912 9.08516 14.2842 11.6884 11.8448 15.3295C9.40543 18.9707 8.40819 23.3893 9.0472 27.7252C9.68622 32.0611 11.9158 36.0042 15.3019 38.7868C18.6879 41.5694 22.9883 42.9925 27.3659 42.7791C31.7434 42.5657 35.885 40.7311 38.9844 37.6323C40.6168 36.0056 41.9119 34.0724 42.7953 31.9439ZM21.393 27.4217C21.1743 27.2019 21.0516 26.9045 21.0516 26.5945C21.0516 26.2845 21.1743 25.9871 21.393 25.7673L29.3708 17.7893C29.5906 17.5723 29.8875 17.451 30.1964 17.452C30.5054 17.453 30.8014 17.5762 31.0199 17.7946C31.2383 18.0131 31.3615 18.3091 31.3625 18.6181C31.3635 18.927 31.2422 19.2239 31.0252 19.4437L23.052 27.4217C22.8313 27.6403 22.5332 27.7629 22.2225 27.7629C21.9118 27.7629 21.6137 27.6403 21.393 27.4217ZM31.7694 25.5065L24.5975 32.6784C24.3776 32.8955 24.0808 33.0168 23.7719 33.0158C23.4629 33.0148 23.1669 32.8916 22.9484 32.6731C22.7299 32.4547 22.6068 32.1586 22.6058 31.8497C22.6048 31.5407 22.7261 31.2439 22.9431 31.024L30.115 23.8522C30.3344 23.6328 30.6319 23.5095 30.9421 23.5095C31.2524 23.5095 31.5499 23.6327 31.7693 23.8521C31.9887 24.0714 32.1119 24.369 32.112 24.6792C32.112 24.9895 31.9887 25.287 31.7694 25.5064V25.5065ZM44.4117 43.0647C48.5386 38.941 51.1083 33.5143 51.6833 27.7087C52.2584 21.9031 50.8031 16.0777 47.5653 11.2246C44.3276 6.37154 39.5076 2.79089 33.9263 1.09249C28.345 -0.605902 22.3476 -0.317008 16.9554 1.90997C11.5632 4.13695 7.10966 8.1643 4.35337 13.3061C1.59708 18.4479 0.708445 24.3862 1.83881 30.1097C2.96917 35.8331 6.04862 40.9877 10.5527 44.6956C15.0568 48.4035 20.707 50.4354 26.5409 50.4453H26.6263C29.9304 50.4443 33.2019 49.7919 36.2537 48.5255C39.3055 47.259 42.0777 45.4034 44.4117 43.0647ZM18.9844 43.605C16.5691 42.6051 14.3747 41.1388 12.5267 39.2899C10.6787 37.4411 9.21334 35.246 8.21453 32.8303C6.83976 29.5046 6.3937 25.868 6.92395 22.3086C7.45419 18.7492 8.94084 15.4005 11.2253 12.6199C13.5097 9.83929 16.5062 7.73104 19.895 6.52013C23.2839 5.30922 26.9379 5.04107 30.4672 5.7443C33.9965 6.44753 37.2686 8.09575 39.9345 10.5131C42.6004 12.9304 44.5599 16.0262 45.6041 19.4701C46.6483 22.9139 46.7379 26.5767 45.8633 30.0674C44.9888 33.5582 43.1829 36.7461 40.6384 39.2909C38.7878 41.1355 36.5946 42.6008 34.1822 43.6045C29.3158 45.6145 23.8512 45.6145 18.9848 43.6045L18.9844 43.605ZM46.635 69.0225C49.3986 67.9322 51.6313 66.6048 53.167 65.0975V68.8612C53.167 71.35 50.3466 73.705 45.7817 75.5018C40.8897 77.4265 34.1016 78.6211 26.5836 78.6211C19.0656 78.6211 12.2773 77.4265 7.38547 75.5018C2.82047 73.7057 0 71.35 0 68.8612V65.0975C1.53594 66.6048 3.76859 67.9322 6.53219 69.0225C11.6848 71.0512 18.7762 72.3075 26.5836 72.3075C34.3909 72.3075 41.4822 71.0512 46.635 69.0225ZM46.2842 60.2054C46.2842 61.3858 44.2648 62.5851 41.003 63.5804C37.3388 64.6943 32.243 65.3817 26.5831 65.3817C20.9233 65.3817 15.8273 64.6942 12.1631 63.5804C8.90188 62.585 6.88188 61.3856 6.88188 60.2054C6.88188 59.03 8.90125 57.8259 12.1631 56.8351C15.8273 55.7212 20.9231 55.029 26.5831 55.029C32.2431 55.029 37.3388 55.7212 41.003 56.8351C44.2656 57.8259 46.2842 59.03 46.2842 60.2054ZM45.7812 53.5643C40.8892 51.6398 34.1012 50.4453 26.5831 50.4453C19.065 50.4453 12.2769 51.6398 7.38484 53.5643C2.82047 55.3609 0 57.7168 0 60.2054C0 62.694 2.82047 65.0501 7.38531 66.8461C12.2773 68.7753 19.0655 69.9651 26.5836 69.9651C34.1017 69.9651 40.8897 68.7753 45.7812 66.8467C50.3461 65.0498 53.1666 62.6942 53.1666 60.2061C53.1666 57.7179 50.3466 55.3609 45.7812 53.5643ZM41.6809 65.8086C37.7891 66.9936 32.4516 67.7236 26.5831 67.7236C20.7147 67.7236 15.3728 66.994 11.4858 65.8086C7.19578 64.505 4.54125 62.5329 4.54125 60.2054C4.54125 57.8779 7.19578 55.9061 11.4858 54.6025C15.3728 53.4222 20.715 52.6875 26.5836 52.6875C32.4522 52.6875 37.7895 53.4218 41.6814 54.6025C45.9712 55.9061 48.6259 57.8779 48.6259 60.2054C48.6259 62.5329 45.9712 64.505 41.6814 65.8086H41.6809ZM79.9877 5.58778C79.4378 11.6459 77.7266 17.3722 75.2047 22.8661H71.7491L74.5411 12.8167C74.6234 12.5181 74.5838 12.199 74.4309 11.9297C74.278 11.6603 74.0243 11.4627 73.7257 11.3804C73.4271 11.298 73.108 11.3377 72.8387 11.4906C72.5693 11.6435 72.3717 11.8972 72.2894 12.1958L69.3267 22.8661H67.6392L64.6764 12.1958C64.5933 11.898 64.3956 11.6453 64.1266 11.4931C63.8575 11.3409 63.5391 11.3016 63.2411 11.3837C62.9431 11.4659 62.6898 11.6629 62.5368 11.9315C62.3838 12.2001 62.3435 12.5184 62.4248 12.8167L65.2169 22.8661H61.7612C59.2344 17.3723 57.5281 11.6461 56.9783 5.58778C56.9192 4.99507 57.0535 4.39916 57.3611 3.88907C57.6687 3.37899 58.1331 2.98213 58.6848 2.75778C62.8136 1.04653 74.1475 1.04653 78.2764 2.75778C78.8293 2.98106 79.2949 3.37753 79.6034 3.88775C79.9119 4.39798 80.0467 4.99446 79.9877 5.58778ZM62.8281 33.4656H74.1384L72.4792 63.9218C72.2044 68.9375 64.7716 68.9375 64.4967 63.9218L62.8281 33.4656ZM62.3778 25.2079H74.5888L74.2656 31.1239H62.6998L62.3778 25.2079Z" fill="white"/>
</svg>
