<svg width="76" height="80" viewBox="0 0 76 80" fill="none" xmlns="http://www.w3.org/2000/svg">
<path d="M41.3278 13.2809H26.4056V0H12.4997V4.6875H21.7181V13.2809H6.79595L4.46548 20.1545H43.6585L41.3278 13.2809Z" fill="white"/>
<path d="M0 24.8423V29.5298H3.28047L3.48469 32.9795H44.6394L44.8434 29.5298H48.1237V24.8423H0Z" fill="white"/>
<path d="M25.0089 72.5273C21.7561 71.5242 19.3858 68.4898 19.3858 64.9121C19.3858 61.3054 21.7948 58.2509 25.0883 57.2729C25.9034 48.9986 32.902 42.5125 41.3872 42.5125H44.0752L44.3619 37.667H3.76202L6.26687 79.9996H26.3462C25.4969 78.5718 25.0087 76.9053 25.0087 75.1267L25.0089 72.5273Z" fill="white"/>
<path d="M34.5695 80.0001H65.117C67.8041 80.0001 69.9902 77.814 69.9902 75.127V72.8792H29.6964V75.127C29.6964 77.814 31.8825 80.0001 34.5695 80.0001Z" fill="white"/>
<path d="M58.2994 47.2H41.3872C35.6036 47.2 30.7875 51.4215 29.8583 56.9451H69.8283C68.8991 51.4215 64.083 47.2 58.2994 47.2Z" fill="white"/>
<path d="M57.0422 61.6326H42.6445L49.8433 67.5096L57.0422 61.6326Z" fill="white"/>
<path d="M72.3341 68.1916C74.1423 68.1916 75.6134 66.7205 75.6134 64.9122C75.6134 63.1039 74.1423 61.6328 72.3341 61.6328H64.4544L56.4203 68.1917H72.3341V68.1916Z" fill="white"/>
<path d="M35.2323 61.6326H27.3526C25.5444 61.6326 24.0733 63.1037 24.0733 64.9119C24.0733 66.7202 25.5444 68.1913 27.3526 68.1913H43.2664L35.2323 61.6326Z" fill="white"/>
</svg>
