<svg width="80" height="70" viewBox="0 0 80 70" fill="none" xmlns="http://www.w3.org/2000/svg">
<path fill-rule="evenodd" clip-rule="evenodd" d="M13.4125 67.3188C13.4125 67.9484 13.5453 68.5406 13.7844 69.0813H0.80625C0.364062 69.0813 0 68.7188 0 68.275V15.9094C0 15.0813 0.673438 14.4078 1.50625 14.4078H29.5781C30.4062 14.4078 31.0844 15.0813 31.0844 15.9094V24.6219L27.4297 26.5797V25.4594C27.4297 23.3516 25.7109 21.6328 23.6031 21.6328H19.5469C17.4344 21.6328 15.7156 23.3516 15.7156 25.4594V32.8656L9.72812 36.0812C6.97812 37.5563 5.94531 40.9891 7.425 43.7391C8.6125 45.95 11.0656 47.0469 13.4125 46.6266V67.3188ZM80 1.9V66.9594C80 68.1281 79.0484 69.0813 77.8828 69.0813H68.5734V54.5047C68.5734 53.7078 67.9219 53.0563 67.125 53.0563H59.2094V46.625C61.15 46.975 63.1641 46.2844 64.475 44.7781C64.5328 44.7922 64.5906 44.8 64.6516 44.8H71.0344C71.4109 44.8 71.7172 44.4938 71.7172 44.1172V37.7344C71.7172 37.3578 71.4109 37.0516 71.0344 37.0516H64.6516C64.5234 37.0516 64.4031 37.0875 64.3016 37.1484C63.8984 36.7281 63.4297 36.3641 62.8891 36.0766L50.7625 29.5656H56.0734C56.45 29.5656 56.7562 29.2594 56.7562 28.8828V22.5C56.7562 22.1281 56.45 21.8172 56.0734 21.8172H49.6906C49.3141 21.8172 49.0078 22.1266 49.0078 22.5V28.625L40.725 24.1828V1.9C40.725 0.854688 41.5797 0 42.625 0H78.0984C79.1453 0 80 0.854688 80 1.9ZM56.7547 7.27656C56.7547 6.9 56.4484 6.59375 56.0719 6.59375H49.6891C49.3125 6.59375 49.0063 6.9 49.0063 7.27656V13.6594C49.0063 14.0313 49.3125 14.3422 49.6891 14.3422H56.0719C56.4484 14.3422 56.7547 14.0328 56.7547 13.6594V7.27656ZM71.7172 22.5047C71.7172 22.1328 71.4109 21.8219 71.0344 21.8219H64.6516C64.275 21.8219 63.9688 22.1313 63.9688 22.5047V28.8875C63.9688 29.2641 64.275 29.5703 64.6516 29.5703H71.0344C71.4109 29.5703 71.7172 29.2641 71.7172 28.8875V22.5047ZM71.7172 7.27656C71.7172 6.9 71.4109 6.59375 71.0344 6.59375H64.6516C64.275 6.59375 63.9688 6.9 63.9688 7.27656V13.6594C63.9688 14.0313 64.275 14.3422 64.6516 14.3422H71.0344C71.4109 14.3422 71.7172 14.0328 71.7172 13.6594V7.27656ZM19.5469 24.2094C18.8609 24.2094 18.2984 24.7719 18.2984 25.4578V31.4813L24.8531 27.9641V25.4578C24.8531 24.7719 24.2906 24.2094 23.6047 24.2094H19.5469ZM15.9891 45.5531V67.3172C15.9891 68.2875 16.7812 69.0797 17.7516 69.0797H30.0109V56.0531C30.0109 55.6109 30.3734 55.2469 30.8172 55.2469H41.7969C42.2438 55.2469 42.6031 55.6094 42.6031 56.0531V69.0797H54.8672C55.8328 69.0797 56.625 68.2875 56.625 67.3172V45.5531L36.3078 34.6484L15.9891 45.5531ZM62.9203 42.5156C63.7266 41.0234 63.1641 39.1578 61.6719 38.3516L37.7641 25.525C36.8125 25.0109 35.7047 25.0563 34.8187 25.5422L10.95 38.3516C9.45312 39.1578 8.89531 41.0219 9.69688 42.5156C10.5031 44.0125 12.3625 44.5703 13.8609 43.7688L36.3125 31.7219L58.7594 43.7688C60.2547 44.5703 62.1188 44.0125 62.9203 42.5156Z" fill="white"/>
</svg>
