<svg width="80" height="80" viewBox="0 0 80 80" fill="none" xmlns="http://www.w3.org/2000/svg">
<path d="M73.4375 10.225C73.175 9.19995 72.225 8.49997 71.1625 8.56244L70.2375 8.62493C69.9625 8.64995 69.675 8.56244 69.4375 8.38743C67.6375 7.13743 65.3625 6.89993 63.3375 7.76243L59.175 9.52497L52.0875 4.61248C51.925 4.49994 51.7 4.49994 51.5375 4.61248L48.4375 6.83744C48.2293 6.96357 48.1767 7.295 48.325 7.48747L52.0125 12.575L41.025 17.25L38.6 14.35C38.4875 14.2125 38.3 14.1624 38.125 14.2L34.6 15.0999C34.2933 15.1755 34.1414 15.5606 34.3251 15.8249C34.325 15.8249 37.1125 19.925 37.1125 19.925C38.4577 21.9248 41.0303 22.7765 43.2875 22.0624C43.2875 22.0624 54.1375 18.5875 54.1375 18.5875L54.6125 24.675C54.6375 24.9295 54.8458 25.1188 55.1 25.1125L58.825 24.9875C59.025 24.975 59.2 24.85 59.2625 24.6625L62.05 16.05L71.975 12.875C73.0875 12.5249 73.725 11.3499 73.4375 10.225Z" fill="white"/>
<path d="M59.4 50.8251H55.125C55.4159 47.5505 52.8964 44.5985 49.5625 44.6171C49.5625 44.617 46.1125 44.617 46.1125 44.617C42.7661 44.5994 40.2599 47.5495 40.5501 50.8251C40.55 50.8251 36.275 50.8251 36.275 50.8251C33.725 50.8251 31.65 52.9001 31.65 55.4501V60.4876H64.025V55.4501C64.025 52.9001 61.95 50.8251 59.4 50.8251ZM43.05 50.1795C43.05 48.492 44.425 47.117 46.1125 47.117H49.5625C51.5474 47.1006 52.862 48.9341 52.6249 50.8251C52.625 50.8251 43.05 50.8251 43.05 50.8251L43.05 50.1795Z" fill="white"/>
<path d="M31.65 62.9875V71C31.65 73.55 33.725 75.625 36.275 75.625H59.4C61.95 75.625 64.025 73.55 64.025 71V62.9875H31.65Z" fill="white"/>
<path d="M20.225 38.5625C20.0125 38.5625 19.85 38.725 19.85 38.9251V41.875C19.85 42.075 20.0125 42.2375 20.225 42.2375H24.8375C25.0375 42.2375 25.2 42.075 25.2 41.875V38.9251C25.2 38.725 25.0375 38.5625 24.8375 38.5625H20.225Z" fill="white"/>
<path d="M17.35 39.3125C17.1828 37.5977 18.4703 36.0514 20.225 36.0625C20.225 36.0625 24.8375 36.0625 24.8375 36.0625C26.425 36.0625 27.7 37.3375 27.7 38.925V39.3125C29.4943 39.3107 37.7005 39.3138 39.3375 39.3125V28.8375C39.3375 25.8375 36.8875 23.3875 33.8875 23.3875H31.7375V16.5C31.7375 13.4375 29.25 10.9375 26.175 10.9375H18.875C15.8125 10.9375 13.3125 13.4375 13.3125 16.5V23.3875H11.1625C8.16254 23.3875 5.7125 25.8375 5.7125 28.8375V39.3125C7.29333 39.3062 15.5832 39.317 17.35 39.3125ZM15.8125 16.5C15.8125 14.8125 17.1875 13.4375 18.875 13.4375H26.175C27.875 13.4375 29.2375 14.8125 29.2375 16.5V23.3874H15.8125V16.5Z" fill="white"/>
<path d="M36.8375 48.325H39.3375V41.8125H27.7C27.7343 43.4213 26.4478 44.7395 24.8375 44.7375H20.225C18.6147 44.7396 17.3153 43.4213 17.35 41.8125H5.7125V61.6125C5.7125 64.2 7.52501 66.3624 9.95001 66.9124C10.3833 67.0126 10.8544 67.058 11.3125 67.05V68.5499C11.3125 70.225 12.675 71.5874 14.35 71.5874H16.95C18.625 71.5874 19.9875 70.225 19.9875 68.5499V67.05H29.15C29.1453 65.1887 29.15 55.45 29.15 55.45C29.1328 51.3003 32.725 48.0496 36.8375 48.325Z" fill="white"/>
</svg>
