<svg width="76" height="77" viewBox="0 0 76 77" fill="none" xmlns="http://www.w3.org/2000/svg">
<path fill-rule="evenodd" clip-rule="evenodd" d="M75.7811 30.6778C75.6861 31.55 75.1842 33.3684 74.6648 34.8839L67.592 53.7584C65.0503 60.4528 61.7508 61.088 58.608 63.9409C57.1606 65.2548 56.1956 66.5914 55.5541 68.0537H43.1653C43.8011 65.5067 44.0591 62.5383 44.1284 61.4931C44.4222 57.0695 46.1147 54.9566 48.2003 53.142C51.6102 50.3805 54.6097 47.8678 57.7033 44.8314C59.6462 42.9244 61.2573 42.792 62.4222 43.7966C62.6828 44.0214 62.8897 44.2606 63.0481 44.5119C63.2597 46.0312 61.7506 48.2398 60.0397 50.2238C58.6072 51.8847 56.9958 53.4005 55.9769 54.3589C55.777 54.5469 55.5998 54.7136 55.4178 54.888C54.9836 55.3056 54.9703 55.9963 55.388 56.4303C55.8056 56.8645 56.4963 56.8778 56.9303 56.4602C57.0567 56.3391 57.2509 56.1562 57.4723 55.9481C58.5194 54.9633 60.1755 53.4055 61.6889 51.6506C64.2708 48.6569 66.3533 45.1453 64.6447 42.6292C65.9581 40.2697 67.593 37 68.852 34.1095C71.5223 27.9794 74.7358 28.1547 75.7811 30.6778ZM55.6716 70.2412H41.9002C40.7992 70.2412 39.8984 71.142 39.8984 72.243V76.5623H57.6733V72.243C57.6733 71.142 56.7725 70.2412 55.6716 70.2412ZM32.6156 68.0537C31.9798 65.5067 31.7219 62.5383 31.6525 61.4931C31.3587 57.0695 29.6662 54.9566 27.5806 53.142C24.1708 50.3805 21.1712 47.8678 18.0777 44.8314C16.1347 42.9244 14.5236 42.792 13.3588 43.7966C13.098 44.0214 12.8912 44.2606 12.7328 44.5119C12.5212 46.0312 14.0303 48.2398 15.7413 50.2238C17.1737 51.8847 18.7852 53.4005 19.8041 54.3589C20.0039 54.5469 20.1811 54.7136 20.3631 54.888C20.7973 55.3056 20.8106 55.9963 20.393 56.4303C19.9753 56.8645 19.2847 56.8778 18.8506 56.4602C18.7242 56.3391 18.53 56.1562 18.3086 55.9481C17.2616 54.9633 15.6055 53.4055 14.092 51.6506C11.5102 48.6569 9.42766 45.1453 11.1363 42.6292C9.82281 40.2697 8.18797 37 6.92891 34.1095C4.25859 27.9794 1.04516 28.1545 0 30.6777C0.095 31.5498 0.596875 33.3683 1.11625 34.8838L8.18906 53.7583C10.7308 60.4527 14.0303 61.0878 17.1731 63.9408C18.6205 65.2547 19.5855 66.5912 20.227 68.0536H32.6158L32.6156 68.0537ZM33.8806 70.2412H20.1092C19.0083 70.2412 18.1075 71.142 18.1075 72.243V76.5623H35.8825V72.243C35.8825 71.142 34.9817 70.2412 33.8806 70.2412ZM39.5347 51.8916C39.075 52.3322 38.4827 52.5525 37.8903 52.5525C37.298 52.5525 36.7058 52.3322 36.2459 51.8916C22.8488 39.05 9.9575 26.2083 9.9575 13.3666C9.9575 5.98828 16.2144 0 23.9239 0C30.9072 0 35.1437 2.68984 37.8905 7.60406C40.6372 2.68984 44.8737 0 51.857 0C59.5666 0 65.8234 5.98812 65.8234 13.3666C65.8234 26.2083 52.9322 39.05 39.5348 51.8917L39.5347 51.8916ZM50.7633 6.20687C50.7633 6.81016 51.2528 7.30125 51.8569 7.30125C53.4791 7.30125 55.0569 7.8525 56.2997 8.85563C57.732 10.0117 58.523 11.6136 58.523 13.3653C58.523 15.3023 58.01 17.4759 56.9994 19.8256C56.7606 20.3806 57.0183 21.0245 57.5725 21.2619C57.7133 21.323 57.8602 21.3523 58.0041 21.3523C58.4273 21.3523 58.8309 21.1038 59.0088 20.6903C60.1369 18.0664 60.7102 15.6022 60.7102 13.3653C60.7102 10.9402 59.6325 8.73359 57.6728 7.15281C56.043 5.83703 53.9772 5.11328 51.8572 5.11328C51.2531 5.11328 50.7636 5.60281 50.7636 6.20687H50.7633ZM41.5875 28.8469H47.9934C49.0291 28.8469 49.8741 28.002 49.8741 26.9664V23.3334C49.8741 22.2977 49.0292 21.453 47.9934 21.453H41.5875V15.0472C41.5875 14.0114 40.7427 13.1666 39.7069 13.1666H36.0739C35.0381 13.1666 34.1933 14.0113 34.1933 15.0472V21.4528H27.7875C26.7517 21.4528 25.907 22.2977 25.907 23.3334V26.9664C25.907 28.0022 26.752 28.8469 27.7875 28.8469H34.1933V35.253C34.1933 36.2887 35.0381 37.1334 36.0739 37.1334H39.7069C40.7427 37.1334 41.5875 36.2886 41.5875 35.253V28.8469Z" fill="white"/>
</svg>
