<svg width="101" height="95" viewBox="0 0 101 95" fill="none" xmlns="http://www.w3.org/2000/svg">
<path d="M100.49 45C100.49 58.22 95.1001 70.72 85.3301 80.17C75.6601 89.53 62.9901 94.68 49.6801 94.68C22.3701 94.68 0.0801412 72.39 0.000141251 45.01C-0.0298587 32.51 4.72014 20.56 13.0301 12.21C21.0001 4.22 31.5001 0 43.4001 0C62.2801 0 77.6601 15.37 77.6601 34.26L77.5601 53.44C77.5601 62.45 70.3401 69.78 61.4601 69.78C56.4301 69.78 51.9301 67.42 48.9801 63.74C46.0501 67.61 41.4301 70.1 36.2501 70.1C27.3801 70.1 20.1501 62.77 20.1501 53.76V32.11C20.1501 30.16 21.7301 28.58 23.6801 28.58C24.6601 28.58 25.5301 28.97 26.1701 29.61C26.8101 30.25 27.2001 31.13 27.2001 32.11V53.76C27.2001 58.89 31.2701 63.06 36.2501 63.06C41.2301 63.06 45.3001 58.89 45.3001 53.76V32.11C45.3001 31.8 45.3401 31.49 45.4201 31.2C45.7001 29.53 47.1401 28.27 48.8801 28.27C49.8601 28.27 50.7301 28.66 51.3701 29.31C52.0101 29.95 52.4101 30.82 52.4101 31.8V53.45C52.4101 58.58 56.4701 62.75 61.4601 62.75C66.4501 62.75 70.5101 58.58 70.5101 53.45V34.27C70.5101 19.31 58.3501 7.15 43.4001 7.15C33.4301 7.15 24.6801 10.65 18.0801 17.27C11.0901 24.28 7.10014 34.39 7.14014 45.01C7.21014 68.47 26.2901 87.56 49.6801 87.56C73.0701 87.56 93.3501 68.08 93.3501 45.02C93.3501 33.52 88.8201 22.74 80.6201 14.67C79.2101 13.29 79.1901 11.03 80.5701 9.63C81.9501 8.22 84.2201 8.2 85.6201 9.59C95.2001 19 100.49 31.59 100.49 45.02V45Z" fill="white"/>
</svg>
