<svg width="1432" height="211" viewBox="0 0 1432 211" fill="none" xmlns="http://www.w3.org/2000/svg">
<mask id="path-1-outside-1_4_2" maskUnits="userSpaceOnUse" x="-1" y="-0.685944" width="1433" height="212" fill="black">
<rect fill="white" x="-1" y="-0.685944" width="1433" height="212"/>
<path d="M271.32 9.04405L188.445 207.944L136.17 65.9091L83.895 207.944L1.02 9.04405H25.755L83.895 152.099L136.68 6.74905L189.465 152.099L247.605 9.04405H271.32ZM283.652 201.314V9.04405H385.652V29.4441H306.602V89.8791H385.397V110.279H306.602V180.914H385.907V201.314H283.652ZM486.528 99.3141C510.243 104.924 526.053 122.519 526.053 147.254C526.053 178.619 502.848 201.314 462.813 201.314H413.598V9.04405H454.653C489.588 9.04405 513.813 30.2091 513.813 59.279C513.813 80.444 499.788 93.7041 486.528 99.3141ZM436.548 28.1691V93.4491H453.633C474.033 93.4491 490.098 82.2291 490.098 60.8091C490.098 39.389 474.033 28.1691 453.633 28.1691H436.548ZM436.548 112.319V182.189H462.303C488.058 182.189 503.358 169.439 503.358 147.254C503.358 125.069 488.058 112.319 462.303 112.319H436.548ZM544.529 9.04405H587.114C648.059 9.04405 692.684 47.804 692.684 105.179C692.684 162.554 648.059 201.314 587.114 201.314H544.529V9.04405ZM669.224 105.179C669.224 58.5141 634.034 29.4441 587.114 29.4441H567.479V180.914H587.114C634.034 180.914 669.224 151.844 669.224 105.179ZM843.225 201.314L821.295 152.609H730.515L708.585 201.314H685.635L776.16 2.41405L866.685 201.314H843.225ZM775.905 51.119L739.44 132.209H812.37L775.905 51.119ZM878.867 9.04405H921.452C982.397 9.04405 1027.02 47.804 1027.02 105.179C1027.02 162.554 982.397 201.314 921.452 201.314H878.867V9.04405ZM1003.56 105.179C1003.56 58.5141 968.372 29.4441 921.452 29.4441H901.817V180.914H921.452C968.372 180.914 1003.56 151.844 1003.56 105.179ZM1157.46 145.469C1157.46 177.599 1130.17 204.374 1095.49 204.374C1060.81 204.374 1035.82 183.209 1030.21 150.569L1051.38 145.469C1056.99 169.949 1072.29 184.484 1095.49 184.484C1116.15 184.484 1134.76 169.949 1134.76 146.744C1134.76 99.0591 1044.49 118.694 1044.49 58.004C1044.49 27.9141 1067.19 5.98405 1098.55 5.98405C1124.56 5.98405 1142.16 20.7741 1149.81 39.8991L1130.43 49.844C1124.56 35.564 1114.36 26.129 1097.79 26.129C1080.19 26.129 1066.68 37.859 1066.68 56.4741C1066.68 99.3141 1157.46 81.7191 1157.46 145.469ZM1179.9 63.6141H1158.48C1158.23 32.7591 1183.73 6.23904 1215.86 6.23904C1250.79 6.23904 1272.72 30.974 1272.72 62.0841C1272.72 94.2141 1247.48 121.754 1233.96 137.564L1196.48 180.914H1275.27V201.314H1152.62L1218.92 124.049C1236.77 103.139 1250.79 85.2891 1250.79 63.104C1250.79 44.4891 1238.55 27.404 1216.37 27.404C1194.95 27.404 1179.65 44.234 1179.9 63.6141ZM1360.66 182.444C1388.71 182.444 1407.32 163.574 1407.32 127.364V9.04405H1430.27V128.384C1430.27 178.109 1399.42 204.374 1360.66 204.374C1321.9 204.374 1291.04 178.109 1291.04 128.384V9.04405H1313.99V127.364C1313.99 163.574 1332.61 182.444 1360.66 182.444Z"/>
</mask>
<path d="M271.32 9.04405L272.243 9.42867L272.82 8.04405H271.32V9.04405ZM188.445 207.944L187.507 208.289L188.387 210.683L189.368 208.329L188.445 207.944ZM136.17 65.9091L137.108 65.5637L136.17 63.0138L135.232 65.5637L136.17 65.9091ZM83.895 207.944L82.9719 208.329L83.9527 210.683L84.8335 208.289L83.895 207.944ZM1.02 9.04405V8.04405H-0.48L0.0969231 9.42867L1.02 9.04405ZM25.755 9.04405L26.6814 8.66754L26.428 8.04405H25.755V9.04405ZM83.895 152.099L82.9686 152.476L83.9475 154.884L84.8349 152.44L83.895 152.099ZM136.68 6.74905L137.62 6.40771L136.68 3.81947L135.74 6.40771L136.68 6.74905ZM189.465 152.099L188.525 152.44L189.413 154.884L190.391 152.476L189.465 152.099ZM247.605 9.04405V8.04405H246.932L246.679 8.66754L247.605 9.04405ZM271.32 9.04405L270.397 8.65944L187.522 207.559L188.445 207.944L189.368 208.329L272.243 9.42867L271.32 9.04405ZM188.445 207.944L189.383 207.599L137.108 65.5637L136.17 65.9091L135.232 66.2544L187.507 208.289L188.445 207.944ZM136.17 65.9091L135.232 65.5637L82.9566 207.599L83.895 207.944L84.8335 208.289L137.108 66.2544L136.17 65.9091ZM83.895 207.944L84.8181 207.559L1.94308 8.65944L1.02 9.04405L0.0969231 9.42867L82.9719 208.329L83.895 207.944ZM1.02 9.04405V10.0441H25.755V9.04405V8.04405H1.02V9.04405ZM25.755 9.04405L24.8286 9.42056L82.9686 152.476L83.895 152.099L84.8214 151.723L26.6814 8.66754L25.755 9.04405ZM83.895 152.099L84.8349 152.44L137.62 7.09039L136.68 6.74905L135.74 6.40771L82.9551 151.758L83.895 152.099ZM136.68 6.74905L135.74 7.09039L188.525 152.44L189.465 152.099L190.405 151.758L137.62 6.40771L136.68 6.74905ZM189.465 152.099L190.391 152.476L248.531 9.42056L247.605 9.04405L246.679 8.66754L188.539 151.723L189.465 152.099ZM247.605 9.04405V10.0441H271.32V9.04405V8.04405H247.605V9.04405ZM283.652 201.314H282.652V202.314H283.652V201.314ZM283.652 9.04405V8.04405H282.652V9.04405H283.652ZM385.652 9.04405H386.652V8.04405H385.652V9.04405ZM385.652 29.444V30.444H386.652V29.444H385.652ZM306.602 29.444V28.444H305.602V29.444H306.602ZM306.602 89.8791H305.602V90.8791H306.602V89.8791ZM385.397 89.8791H386.397V88.8791H385.397V89.8791ZM385.397 110.279V111.279H386.397V110.279H385.397ZM306.602 110.279V109.279H305.602V110.279H306.602ZM306.602 180.914H305.602V181.914H306.602V180.914ZM385.907 180.914H386.907V179.914H385.907V180.914ZM385.907 201.314V202.314H386.907V201.314H385.907ZM283.652 201.314H284.652V9.04405H283.652H282.652V201.314H283.652ZM283.652 9.04405V10.0441H385.652V9.04405V8.04405H283.652V9.04405ZM385.652 9.04405H384.652V29.444H385.652H386.652V9.04405H385.652ZM385.652 29.444V28.444H306.602V29.444V30.444H385.652V29.444ZM306.602 29.444H305.602V89.8791H306.602H307.602V29.444H306.602ZM306.602 89.8791V90.8791H385.397V89.8791V88.8791H306.602V89.8791ZM385.397 89.8791H384.397V110.279H385.397H386.397V89.8791H385.397ZM385.397 110.279V109.279H306.602V110.279V111.279H385.397V110.279ZM306.602 110.279H305.602V180.914H306.602H307.602V110.279H306.602ZM306.602 180.914V181.914H385.907V180.914V179.914H306.602V180.914ZM385.907 180.914H384.907V201.314H385.907H386.907V180.914H385.907ZM385.907 201.314V200.314H283.652V201.314V202.314H385.907V201.314ZM486.528 99.3141L486.138 98.3931L483.324 99.5837L486.298 100.287L486.528 99.3141ZM413.598 201.314H412.598V202.314H413.598V201.314ZM413.598 9.04405V8.04405H412.598V9.04405H413.598ZM436.548 28.1691V27.1691H435.548V28.1691H436.548ZM436.548 93.4491H435.548V94.4491H436.548V93.4491ZM436.548 112.319V111.319H435.548V112.319H436.548ZM436.548 182.189H435.548V183.189H436.548V182.189ZM486.528 99.3141L486.298 100.287C509.616 105.803 525.053 123.036 525.053 147.254H526.053H527.053C527.053 122.002 510.87 104.045 486.758 98.3409L486.528 99.3141ZM526.053 147.254H525.053C525.053 162.677 519.355 175.91 508.782 185.298C498.199 194.695 482.645 200.314 462.813 200.314V201.314V202.314C483.016 202.314 499.082 196.586 510.11 186.794C521.148 176.993 527.053 163.196 527.053 147.254H526.053ZM462.813 201.314V200.314H413.598V201.314V202.314H462.813V201.314ZM413.598 201.314H414.598V9.04405H413.598H412.598V201.314H413.598ZM413.598 9.04405V10.0441H454.653V9.04405V8.04405H413.598V9.04405ZM454.653 9.04405V10.0441C489.187 10.0441 512.813 30.9013 512.813 59.2791H513.813H514.813C514.813 29.5168 489.989 8.04405 454.653 8.04405V9.04405ZM513.813 59.2791H512.813C512.813 79.9305 499.144 92.8909 486.138 98.3931L486.528 99.3141L486.918 100.235C500.432 94.5172 514.813 80.9576 514.813 59.2791H513.813ZM436.548 28.1691H435.548V93.4491H436.548H437.548V28.1691H436.548ZM436.548 93.4491V94.4491H453.633V93.4491V92.4491H436.548V93.4491ZM453.633 93.4491V94.4491C464.006 94.4491 473.368 91.5969 480.156 85.9292C486.967 80.2423 491.098 71.7923 491.098 60.8091H490.098H489.098C489.098 71.2458 485.196 79.1158 478.875 84.394C472.53 89.6912 463.66 92.4491 453.633 92.4491V93.4491ZM490.098 60.8091H491.098C491.098 49.8258 486.967 41.3758 480.156 35.6889C473.368 30.0212 464.006 27.1691 453.633 27.1691V28.1691V29.1691C463.66 29.1691 472.53 31.9269 478.875 37.2242C485.196 42.5023 489.098 50.3723 489.098 60.8091H490.098ZM453.633 28.1691V27.1691H436.548V28.1691V29.1691H453.633V28.1691ZM436.548 112.319H435.548V182.189H436.548H437.548V112.319H436.548ZM436.548 182.189V183.189H462.303V182.189V181.189H436.548V182.189ZM462.303 182.189V183.189C475.333 183.189 485.854 179.964 493.135 173.804C500.438 167.625 504.358 158.592 504.358 147.254H503.358H502.358C502.358 158.101 498.628 166.536 491.843 172.278C485.034 178.039 475.028 181.189 462.303 181.189V182.189ZM503.358 147.254H504.358C504.358 135.916 500.438 126.884 493.135 120.704C485.854 114.544 475.333 111.319 462.303 111.319V112.319V113.319C475.028 113.319 485.034 116.469 491.843 122.231C498.628 127.972 502.358 136.407 502.358 147.254H503.358ZM462.303 112.319V111.319H436.548V112.319V113.319H462.303V112.319ZM544.529 9.04405V8.04405H543.529V9.04405H544.529ZM544.529 201.314H543.529V202.314H544.529V201.314ZM567.479 29.444V28.444H566.479V29.444H567.479ZM567.479 180.914H566.479V181.914H567.479V180.914ZM544.529 9.04405V10.0441H587.114V9.04405V8.04405H544.529V9.04405ZM587.114 9.04405V10.0441C617.376 10.0441 643.519 19.6656 662.085 36.3399C680.642 53.0064 691.684 76.7667 691.684 105.179H692.684H693.684C693.684 76.2164 682.413 51.9092 663.421 34.8519C644.438 17.8025 617.797 8.04405 587.114 8.04405V9.04405ZM692.684 105.179H691.684C691.684 133.591 680.642 157.352 662.085 174.018C643.519 190.693 617.376 200.314 587.114 200.314V201.314V202.314C617.797 202.314 644.438 192.556 663.421 175.506C682.413 158.449 693.684 134.142 693.684 105.179H692.684ZM587.114 201.314V200.314H544.529V201.314V202.314H587.114V201.314ZM544.529 201.314H545.529V9.04405H544.529H543.529V201.314H544.529ZM669.224 105.179H670.224C670.224 81.5784 661.317 62.3676 646.43 49.0665C631.555 35.7757 610.777 28.444 587.114 28.444V29.444V30.444C610.37 30.444 630.648 37.6474 645.097 50.5579C659.535 63.458 668.224 82.1147 668.224 105.179H669.224ZM587.114 29.444V28.444H567.479V29.444V30.444H587.114V29.444ZM567.479 29.444H566.479V180.914H567.479H568.479V29.444H567.479ZM567.479 180.914V181.914H587.114V180.914V179.914H567.479V180.914ZM587.114 180.914V181.914C610.777 181.914 631.555 174.582 646.43 161.292C661.317 147.991 670.224 128.78 670.224 105.179H669.224H668.224C668.224 128.243 659.535 146.9 645.097 159.8C630.648 172.711 610.37 179.914 587.114 179.914V180.914ZM843.225 201.314L842.313 201.725L842.579 202.314H843.225V201.314ZM821.295 152.609L822.207 152.198L821.942 151.609H821.295V152.609ZM730.515 152.609V151.609H729.869L729.603 152.198L730.515 152.609ZM708.585 201.314V202.314H709.232L709.497 201.725L708.585 201.314ZM685.635 201.314L684.725 200.9L684.081 202.314H685.635V201.314ZM776.16 2.41405L777.07 1.9998L776.16 0L775.25 1.9998L776.16 2.41405ZM866.685 201.314V202.314H868.239L867.595 200.9L866.685 201.314ZM775.905 51.119L776.817 50.7089L775.905 48.6808L774.993 50.7089L775.905 51.119ZM739.44 132.209L738.528 131.799L737.894 133.209H739.44V132.209ZM812.37 132.209V133.209H813.916L813.282 131.799L812.37 132.209ZM843.225 201.314L844.137 200.904L822.207 152.198L821.295 152.609L820.383 153.02L842.313 201.725L843.225 201.314ZM821.295 152.609V151.609H730.515V152.609V153.609H821.295V152.609ZM730.515 152.609L729.603 152.198L707.673 200.904L708.585 201.314L709.497 201.725L731.427 153.02L730.515 152.609ZM708.585 201.314V200.314H685.635V201.314V202.314H708.585V201.314ZM685.635 201.314L686.545 201.728L777.07 2.82829L776.16 2.41405L775.25 1.9998L684.725 200.9L685.635 201.314ZM776.16 2.41405L775.25 2.82829L865.775 201.728L866.685 201.314L867.595 200.9L777.07 1.9998L776.16 2.41405ZM866.685 201.314V200.314H843.225V201.314V202.314H866.685V201.314ZM775.905 51.119L774.993 50.7089L738.528 131.799L739.44 132.209L740.352 132.619L776.817 51.5292L775.905 51.119ZM739.44 132.209V133.209H812.37V132.209V131.209H739.44V132.209ZM812.37 132.209L813.282 131.799L776.817 50.7089L775.905 51.119L774.993 51.5292L811.458 132.619L812.37 132.209ZM878.867 9.04405V8.04405H877.867V9.04405H878.867ZM878.867 201.314H877.867V202.314H878.867V201.314ZM901.817 29.444V28.444H900.817V29.444H901.817ZM901.817 180.914H900.817V181.914H901.817V180.914ZM878.867 9.04405V10.0441H921.452V9.04405V8.04405H878.867V9.04405ZM921.452 9.04405V10.0441C951.714 10.0441 977.858 19.6656 996.424 36.3399C1014.98 53.0064 1026.02 76.7667 1026.02 105.179H1027.02H1028.02C1028.02 76.2164 1016.75 51.9092 997.76 34.8519C978.777 17.8025 952.135 8.04405 921.452 8.04405V9.04405ZM1027.02 105.179H1026.02C1026.02 133.591 1014.98 157.352 996.424 174.018C977.858 190.693 951.714 200.314 921.452 200.314V201.314V202.314C952.135 202.314 978.777 192.556 997.76 175.506C1016.75 158.449 1028.02 134.142 1028.02 105.179H1027.02ZM921.452 201.314V200.314H878.867V201.314V202.314H921.452V201.314ZM878.867 201.314H879.867V9.04405H878.867H877.867V201.314H878.867ZM1003.56 105.179H1004.56C1004.56 81.5784 995.656 62.3676 980.769 49.0665C965.893 35.7757 945.116 28.444 921.452 28.444V29.444V30.444C944.709 30.444 964.986 37.6474 979.436 50.5579C993.874 63.458 1002.56 82.1147 1002.56 105.179H1003.56ZM921.452 29.444V28.444H901.817V29.444V30.444H921.452V29.444ZM901.817 29.444H900.817V180.914H901.817H902.817V29.444H901.817ZM901.817 180.914V181.914H921.452V180.914V179.914H901.817V180.914ZM921.452 180.914V181.914C945.116 181.914 965.893 174.582 980.769 161.292C995.656 147.991 1004.56 128.78 1004.56 105.179H1003.56H1002.56C1002.56 128.243 993.874 146.9 979.436 159.8C964.986 172.711 944.709 179.914 921.452 179.914V180.914ZM1030.21 150.569L1029.98 149.597L1029.07 149.816L1029.23 150.738L1030.21 150.569ZM1051.38 145.469L1052.35 145.246L1052.13 144.26L1051.14 144.497L1051.38 145.469ZM1149.81 39.899L1150.27 40.7887L1151.08 40.373L1150.74 39.5277L1149.81 39.899ZM1130.43 49.844L1129.5 50.224L1129.92 51.2306L1130.89 50.7337L1130.43 49.844ZM1157.46 145.469H1156.46C1156.46 177.009 1129.66 203.374 1095.49 203.374V204.374V205.374C1130.69 205.374 1158.46 178.189 1158.46 145.469H1157.46ZM1095.49 204.374V203.374C1061.29 203.374 1036.72 182.547 1031.2 150.4L1030.21 150.569L1029.23 150.738C1034.92 183.871 1060.34 205.374 1095.49 205.374V204.374ZM1030.21 150.569L1030.45 151.541L1051.61 146.441L1051.38 145.469L1051.14 144.497L1029.98 149.597L1030.21 150.569ZM1051.38 145.469L1050.4 145.692C1053.24 158.079 1058.55 168.035 1066.17 174.899C1073.8 181.775 1083.67 185.484 1095.49 185.484V184.484V183.484C1084.11 183.484 1074.73 179.926 1067.51 173.414C1060.27 166.891 1055.13 157.34 1052.35 145.246L1051.38 145.469ZM1095.49 184.484V185.484C1116.6 185.484 1135.76 170.595 1135.76 146.744H1134.76H1133.76C1133.76 169.303 1115.7 183.484 1095.49 183.484V184.484ZM1134.76 146.744H1135.76C1135.76 134.418 1129.89 126.424 1121.23 120.472C1112.64 114.573 1101.2 110.611 1089.99 106.317C1078.69 101.994 1067.57 97.322 1059.26 90.0165C1051.01 82.7613 1045.49 72.8797 1045.49 58.004H1044.49H1043.49C1043.49 73.4734 1049.27 83.8962 1057.94 91.5186C1066.55 99.0908 1078 103.87 1089.27 108.185C1100.62 112.529 1111.75 116.392 1120.09 122.12C1128.35 127.794 1133.76 135.228 1133.76 146.744H1134.76ZM1044.49 58.004H1045.49C1045.49 28.5011 1067.71 6.98405 1098.55 6.98405V5.98405V4.98405C1066.67 4.98405 1043.49 27.327 1043.49 58.004H1044.49ZM1098.55 5.98405V6.98405C1124.12 6.98405 1141.37 21.4939 1148.88 40.2704L1149.81 39.899L1150.74 39.5277C1142.95 20.0542 1125.01 4.98405 1098.55 4.98405V5.98405ZM1149.81 39.899L1149.35 39.0094L1129.97 48.9543L1130.43 49.844L1130.89 50.7337L1150.27 40.7887L1149.81 39.899ZM1130.43 49.844L1131.35 49.4641C1128.38 42.2122 1124.27 36.1205 1118.74 31.8407C1113.19 27.5508 1106.28 25.129 1097.79 25.129V26.129V27.129C1105.87 27.129 1112.35 29.4248 1117.51 33.4224C1122.69 37.4301 1126.62 43.1959 1129.5 50.224L1130.43 49.844ZM1097.79 26.129V25.129C1088.77 25.129 1080.74 28.1378 1074.95 33.5933C1069.16 39.0556 1065.68 46.9121 1065.68 56.474H1066.68H1067.68C1067.68 47.421 1070.96 40.105 1076.32 35.0485C1081.69 29.9853 1089.21 27.129 1097.79 27.129V26.129ZM1066.68 56.474H1065.68C1065.68 67.6422 1071.64 74.8505 1080.33 80.3335C1088.95 85.7708 1100.44 89.6309 1111.7 94.0609C1123.04 98.5212 1134.23 103.58 1142.59 111.423C1150.9 119.22 1156.46 129.811 1156.46 145.469H1157.46H1158.46C1158.46 129.253 1152.67 118.136 1143.96 109.964C1135.3 101.837 1123.79 96.6644 1112.43 92.1997C1101 87.7047 1089.8 83.9467 1081.4 78.6421C1073.06 73.3832 1067.68 66.7259 1067.68 56.474H1066.68ZM1179.9 63.614V64.614H1180.92L1180.9 63.6009L1179.9 63.614ZM1158.48 63.614L1157.48 63.6223L1157.49 64.614H1158.48V63.614ZM1233.96 137.564L1234.72 138.218L1234.72 138.214L1233.96 137.564ZM1196.48 180.914L1195.72 180.26L1194.29 181.914H1196.48V180.914ZM1275.27 180.914H1276.27V179.914H1275.27V180.914ZM1275.27 201.314V202.314H1276.27V201.314H1275.27ZM1152.62 201.314L1151.86 200.663L1150.44 202.314H1152.62V201.314ZM1218.92 124.049L1219.68 124.7L1219.68 124.698L1218.92 124.049ZM1179.9 63.614V62.614H1158.48V63.614V64.614H1179.9V63.614ZM1158.48 63.614L1159.48 63.6058C1159.23 33.3025 1184.29 7.23904 1215.86 7.23904V6.23904V5.23904C1183.17 5.23904 1157.22 32.2156 1157.48 63.6223L1158.48 63.614ZM1215.86 6.23904V7.23904C1233.08 7.23904 1247.03 13.3302 1256.68 23.1944C1266.33 33.0636 1271.72 46.7663 1271.72 62.0841H1272.72H1273.72C1273.72 46.2918 1268.15 32.072 1258.11 21.7962C1248.05 11.5154 1233.57 5.23904 1215.86 5.23904V6.23904ZM1272.72 62.0841H1271.72C1271.72 77.8887 1265.51 92.6199 1257.56 105.416C1249.61 118.215 1239.98 128.987 1233.2 136.914L1233.96 137.564L1234.72 138.214C1241.46 130.331 1251.21 119.428 1259.26 106.472C1267.31 93.5132 1273.72 78.4094 1273.72 62.0841H1272.72ZM1233.96 137.564L1233.21 136.91L1195.72 180.26L1196.48 180.914L1197.23 181.568L1234.72 138.218L1233.96 137.564ZM1196.48 180.914V181.914H1275.27V180.914V179.914H1196.48V180.914ZM1275.27 180.914H1274.27V201.314H1275.27H1276.27V180.914H1275.27ZM1275.27 201.314V200.314H1152.62V201.314V202.314H1275.27V201.314ZM1152.62 201.314L1153.38 201.965L1219.68 124.7L1218.92 124.049L1218.16 123.398L1151.86 200.663L1152.62 201.314ZM1218.92 124.049L1219.68 124.698C1237.49 103.839 1251.79 85.715 1251.79 63.104H1250.79H1249.79C1249.79 84.8631 1236.05 102.439 1218.16 123.4L1218.92 124.049ZM1250.79 63.104H1251.79C1251.79 53.5843 1248.66 44.4145 1242.65 37.6111C1236.62 30.7917 1227.74 26.4041 1216.37 26.4041V27.4041V28.4041C1227.18 28.4041 1235.51 32.5589 1241.15 38.9358C1246.8 45.3286 1249.79 54.0088 1249.79 63.104H1250.79ZM1216.37 27.4041V26.4041C1194.38 26.4041 1178.64 43.7005 1178.9 63.6272L1179.9 63.614L1180.9 63.6009C1180.66 44.7676 1195.52 28.4041 1216.37 28.4041V27.4041ZM1407.32 9.04405V8.04405H1406.32V9.04405H1407.32ZM1430.27 9.04405H1431.27V8.04405H1430.27V9.04405ZM1291.04 9.04405V8.04405H1290.04V9.04405H1291.04ZM1313.99 9.04405H1314.99V8.04405H1313.99V9.04405ZM1360.66 182.444V183.444C1374.92 183.444 1386.88 178.64 1395.26 169.145C1403.63 159.665 1408.32 145.631 1408.32 127.364H1407.32H1406.32C1406.32 145.307 1401.71 158.813 1393.76 167.821C1385.82 176.813 1374.45 181.444 1360.66 181.444V182.444ZM1407.32 127.364H1408.32V9.04405H1407.32H1406.32V127.364H1407.32ZM1407.32 9.04405V10.0441H1430.27V9.04405V8.04405H1407.32V9.04405ZM1430.27 9.04405H1429.27V128.384H1430.27H1431.27V9.04405H1430.27ZM1430.27 128.384H1429.27C1429.27 153.035 1421.63 171.764 1409.29 184.325C1396.94 196.889 1379.81 203.374 1360.66 203.374V204.374V205.374C1380.26 205.374 1397.94 198.727 1410.71 185.727C1423.49 172.725 1431.27 153.458 1431.27 128.384H1430.27ZM1360.66 204.374V203.374C1341.5 203.374 1324.37 196.889 1312.03 184.325C1299.68 171.764 1292.04 153.035 1292.04 128.384H1291.04H1290.04C1290.04 153.458 1297.82 172.725 1310.6 185.727C1323.37 198.727 1341.05 205.374 1360.66 205.374V204.374ZM1291.04 128.384H1292.04V9.04405H1291.04H1290.04V128.384H1291.04ZM1291.04 9.04405V10.0441H1313.99V9.04405V8.04405H1291.04V9.04405ZM1313.99 9.04405H1312.99V127.364H1313.99H1314.99V9.04405H1313.99ZM1313.99 127.364H1312.99C1312.99 145.631 1317.69 159.665 1326.06 169.145C1334.44 178.64 1346.4 183.444 1360.66 183.444V182.444V181.444C1346.87 181.444 1335.49 176.813 1327.55 167.821C1319.6 158.813 1314.99 145.307 1314.99 127.364H1313.99Z" fill="url(#paint0_linear_4_2)" mask="url(#path-1-outside-1_4_2)"/>
<defs>
<linearGradient id="paint0_linear_4_2" x1="743" y1="-30.6859" x2="743" y2="217.814" gradientUnits="userSpaceOnUse">
<stop stop-color="white"/>
<stop offset="0.650644" stop-color="#7A7A7A"/>
<stop offset="1"/>
</linearGradient>
</defs>
</svg>
