<svg width="42" height="42" viewBox="0 0 42 42" fill="none" xmlns="http://www.w3.org/2000/svg">
<g clip-path="url(#clip0_29_9)">
<path d="M12.6 12.6L13.735 11.7803C13.3794 11.288 12.7471 11.0811 12.1693 11.2679C11.5915 11.4547 11.2 11.9928 11.2 12.6H12.6ZM21 39.2C10.9484 39.2 2.8 31.0517 2.8 21H0C0 32.5979 9.40201 42 21 42V39.2ZM39.2 21C39.2 31.0517 31.0517 39.2 21 39.2V42C32.5979 42 42 32.5979 42 21H39.2ZM21 2.8C31.0517 2.8 39.2 10.9484 39.2 21H42C42 9.40201 32.5979 0 21 0V2.8ZM21 0C9.40201 0 0 9.40201 0 21H2.8C2.8 10.9484 10.9484 2.8 21 2.8V0ZM14 33.6V12.6H11.2V33.6H14ZM11.465 13.4197L29.6652 38.6196L31.9348 36.9804L13.735 11.7803L11.465 13.4197ZM28 11.2V28H30.8V11.2H28Z" fill="#50A2FF"/>
</g>
<defs>
<clipPath id="clip0_29_9">
<rect width="42" height="42" fill="white"/>
</clipPath>
</defs>
</svg>
