<svg width="2185" height="1228" viewBox="0 0 2185 1228" fill="none" xmlns="http://www.w3.org/2000/svg">
<mask id="mask0_46_3" style="mask-type:luminance" maskUnits="userSpaceOnUse" x="0" y="0" width="2185" height="1228">
<path d="M2184.16 0H0.15625V1228H2184.16V0Z" fill="white"/>
</mask>
<g mask="url(#mask0_46_3)">
<g opacity="0.1">
<path d="M59.6157 0.493164V1228.49" stroke="#DEDCED" stroke-width="1.13704"/>
<path d="M20.0035 0.493042L20.0034 1228.49" stroke="#DEDCED" stroke-width="1.13704"/>
<path d="M99.4117 0.493164L99.4116 1228.49" stroke="#DEDCED" stroke-width="1.13704"/>
<path d="M139.208 0.493164V1228.49" stroke="#DEDCED" stroke-width="1.13704"/>
<path d="M179.004 0.493164V1228.49" stroke="#DEDCED" stroke-width="1.13704"/>
<path d="M218.801 0.493164V1228.49" stroke="#DEDCED" stroke-width="1.13704"/>
<path d="M258.597 0.493164V1228.49" stroke="#DEDCED" stroke-width="1.13704"/>
<path d="M298.393 0.493164V1228.49" stroke="#DEDCED" stroke-width="1.13704"/>
<path d="M338.189 0.493164V1228.49" stroke="#DEDCED" stroke-width="1.13704"/>
<path d="M377.986 0.493164V1228.49" stroke="#DEDCED" stroke-width="1.13704"/>
<path d="M417.782 0.493164V1228.49" stroke="#DEDCED" stroke-width="1.13704"/>
<path d="M457.578 0.493164V1228.49" stroke="#DEDCED" stroke-width="1.13704"/>
<path d="M497.375 0.493164V1228.49" stroke="#DEDCED" stroke-width="1.13704"/>
<path d="M537.171 0.493164V1228.49" stroke="#DEDCED" stroke-width="1.13704"/>
<path d="M576.967 0.493164V1228.49" stroke="#DEDCED" stroke-width="1.13704"/>
<path d="M616.764 0.493164V1228.49" stroke="#DEDCED" stroke-width="1.13704"/>
<path d="M656.56 0.493164V1228.49" stroke="#DEDCED" stroke-width="1.13704"/>
<path d="M696.356 0.493164V1228.49" stroke="#DEDCED" stroke-width="1.13704"/>
<path d="M736.153 0.493164L736.152 1228.49" stroke="#DEDCED" stroke-width="1.13704"/>
<path d="M775.949 0.493164V1228.49" stroke="#DEDCED" stroke-width="1.13704"/>
<path d="M815.745 0.493164V1228.49" stroke="#DEDCED" stroke-width="1.13704"/>
<path d="M855.541 0.493164V1228.49" stroke="#DEDCED" stroke-width="1.13704"/>
<path d="M895.338 0.493164V1228.49" stroke="#DEDCED" stroke-width="1.13704"/>
<path d="M935.134 0.493164V1228.49" stroke="#DEDCED" stroke-width="1.13704"/>
<path d="M974.93 0.493164V1228.49" stroke="#DEDCED" stroke-width="1.13704"/>
<path d="M1014.73 0.493164V1228.49" stroke="#DEDCED" stroke-width="1.13704"/>
<path d="M1054.52 0.493164V1228.49" stroke="#DEDCED" stroke-width="1.13704"/>
<path d="M1094.32 0.493164V1228.49" stroke="#DEDCED" stroke-width="1.13704"/>
<path d="M1134.12 0.493164V1228.49" stroke="#DEDCED" stroke-width="1.13704"/>
<path d="M1173.91 0.493164V1228.49" stroke="#DEDCED" stroke-width="1.13704"/>
<path d="M1213.71 0.493164V1228.49" stroke="#DEDCED" stroke-width="1.13704"/>
<path d="M1253.5 0.493164V1228.49" stroke="#DEDCED" stroke-width="1.13704"/>
<path d="M1293.3 0.493164V1228.49" stroke="#DEDCED" stroke-width="1.13704"/>
<path d="M1333.1 0.493164V1228.49" stroke="#DEDCED" stroke-width="1.13704"/>
<path d="M1372.89 0.493164V1228.49" stroke="#DEDCED" stroke-width="1.13704"/>
<path d="M1412.69 0.493164V1228.49" stroke="#DEDCED" stroke-width="1.13704"/>
<path d="M1452.49 0.493164V1228.49" stroke="#DEDCED" stroke-width="1.13704"/>
<path d="M1492.28 0.493164V1228.49" stroke="#DEDCED" stroke-width="1.13704"/>
<path d="M1532.08 0.493164V1228.49" stroke="#DEDCED" stroke-width="1.13704"/>
<path d="M1571.87 0.493164V1228.49" stroke="#DEDCED" stroke-width="1.13704"/>
<path d="M1611.67 0.493164V1228.49" stroke="#DEDCED" stroke-width="1.13704"/>
<path d="M1651.47 0.493164V1228.49" stroke="#DEDCED" stroke-width="1.13704"/>
<path d="M1691.26 0.493164V1228.49" stroke="#DEDCED" stroke-width="1.13704"/>
<path d="M1731.06 0.493164V1228.49" stroke="#DEDCED" stroke-width="1.13704"/>
<path d="M1770.86 0.493164V1228.49" stroke="#DEDCED" stroke-width="1.13704"/>
<path d="M1810.65 0.493164V1228.49" stroke="#DEDCED" stroke-width="1.13704"/>
<path d="M1850.45 0.493164V1228.49" stroke="#DEDCED" stroke-width="1.13704"/>
<path d="M1890.25 0.493164L1890.24 1228.49" stroke="#DEDCED" stroke-width="1.13704"/>
<path d="M1930.04 0.493164V1228.49" stroke="#DEDCED" stroke-width="1.13704"/>
<path d="M1969.84 0.493164V1228.49" stroke="#DEDCED" stroke-width="1.13704"/>
<path d="M2008.96 0.493164V1228.49" stroke="#DEDCED" stroke-width="1.13704"/>
<path d="M2048.08 0.493164V1228.49" stroke="#DEDCED" stroke-width="1.13704"/>
<path d="M2087.2 0.493164V1228.49" stroke="#DEDCED" stroke-width="1.13704"/>
<path d="M2126.32 0.493164V1228.49" stroke="#DEDCED" stroke-width="1.13704"/>
<path d="M2165.44 0.493164V1228.49" stroke="#DEDCED" stroke-width="1.13704"/>
<path d="M0.600586 1213.82H2183.71" stroke="#DEDCED" stroke-width="1.13704"/>
<path d="M0.600586 1174.03H2183.71" stroke="#DEDCED" stroke-width="1.13704"/>
<path d="M0.600586 1134.23H2183.71" stroke="#DEDCED" stroke-width="1.13704"/>
<path d="M0.600586 1094.43H2183.71" stroke="#DEDCED" stroke-width="1.13704"/>
<path d="M0.600586 1054.64H2183.71" stroke="#DEDCED" stroke-width="1.13704"/>
<path d="M0.600586 1014.84H2183.71" stroke="#DEDCED" stroke-width="1.13704"/>
<path d="M0.600586 975.044H2183.71" stroke="#DEDCED" stroke-width="1.13704"/>
<path d="M0.600586 935.247H2183.71" stroke="#DEDCED" stroke-width="1.13704"/>
<path d="M0.600586 895.451H2183.71" stroke="#DEDCED" stroke-width="1.13704"/>
<path d="M0.600586 855.655H2183.71" stroke="#DEDCED" stroke-width="1.13704"/>
<path d="M0.600586 815.858H2183.71" stroke="#DEDCED" stroke-width="1.13704"/>
<path d="M0.600586 776.062H2183.71" stroke="#DEDCED" stroke-width="1.13704"/>
<path d="M0.600586 736.266H2183.71" stroke="#DEDCED" stroke-width="1.13704"/>
<path d="M0.600586 696.47L2183.71 696.469" stroke="#DEDCED" stroke-width="1.13704"/>
<path d="M0.600586 656.673H2183.71" stroke="#DEDCED" stroke-width="1.13704"/>
<path d="M0.600586 616.877H2183.71" stroke="#DEDCED" stroke-width="1.13704"/>
<path d="M0.600586 577.081H2183.71" stroke="#DEDCED" stroke-width="1.13704"/>
<path d="M0.600586 537.284H2183.71" stroke="#DEDCED" stroke-width="1.13704"/>
<path d="M0.600586 497.488H2183.71" stroke="#DEDCED" stroke-width="1.13704"/>
<path d="M0.600586 457.692H2183.71" stroke="#DEDCED" stroke-width="1.13704"/>
<path d="M0.600586 417.895H2183.71" stroke="#DEDCED" stroke-width="1.13704"/>
<path d="M0.600586 378.099H2183.71" stroke="#DEDCED" stroke-width="1.13704"/>
<path d="M0.600586 338.303H2183.71" stroke="#DEDCED" stroke-width="1.13704"/>
<path d="M0.600586 298.506L2183.71 298.507" stroke="#DEDCED" stroke-width="1.13704"/>
<path d="M0.600586 258.71H2183.71" stroke="#DEDCED" stroke-width="1.13704"/>
<path d="M0.600586 218.914H2183.71" stroke="#DEDCED" stroke-width="1.13704"/>
<path d="M0.600586 179.118H2183.71" stroke="#DEDCED" stroke-width="1.13704"/>
<path d="M0.600586 139.321H2183.71" stroke="#DEDCED" stroke-width="1.13704"/>
<path d="M0.600586 99.525H2183.71" stroke="#DEDCED" stroke-width="1.13704"/>
<path d="M0.600586 59.7287H2183.71" stroke="#DEDCED" stroke-width="1.13704"/>
<path d="M0.600586 19.9325H2183.71" stroke="#DEDCED" stroke-width="1.13704"/>
</g>
<g opacity="0.4">
<g opacity="0.5">
<path d="M815.912 213.692V223.788" stroke="#DEDCED" stroke-width="1.13704"/>
<path d="M821.04 218.891H810.857" stroke="#DEDCED" stroke-width="1.13704"/>
<path d="M975.361 213.692V223.788" stroke="#DEDCED" stroke-width="1.13704"/>
<path d="M980.489 218.891H970.307" stroke="#DEDCED" stroke-width="1.13704"/>
<path d="M975.361 372.873V382.97" stroke="#DEDCED" stroke-width="1.13704"/>
<path d="M980.489 378.073H970.307" stroke="#DEDCED" stroke-width="1.13704"/>
<path d="M815.921 372.873V382.97" stroke="#DEDCED" stroke-width="1.13704"/>
<path d="M821.048 378.073H810.866" stroke="#DEDCED" stroke-width="1.13704"/>
</g>
<g opacity="0.5">
<path d="M1452.08 213.692V223.788" stroke="#DEDCED" stroke-width="1.13704"/>
<path d="M1457.21 218.891H1447.02" stroke="#DEDCED" stroke-width="1.13704"/>
<path d="M1611.53 213.692V223.788" stroke="#DEDCED" stroke-width="1.13704"/>
<path d="M1616.66 218.891H1606.47" stroke="#DEDCED" stroke-width="1.13704"/>
<path d="M1611.53 372.873V382.97" stroke="#DEDCED" stroke-width="1.13704"/>
<path d="M1616.66 378.073H1606.47" stroke="#DEDCED" stroke-width="1.13704"/>
<path d="M1452.09 372.873V382.97" stroke="#DEDCED" stroke-width="1.13704"/>
<path d="M1457.22 378.073H1447.03" stroke="#DEDCED" stroke-width="1.13704"/>
</g>
<g opacity="0.5">
<path d="M497.328 213.692V223.788" stroke="#DEDCED" stroke-width="1.13704"/>
<path d="M502.456 218.891H492.274" stroke="#DEDCED" stroke-width="1.13704"/>
<path d="M656.778 213.692V223.788" stroke="#DEDCED" stroke-width="1.13704"/>
<path d="M661.905 218.891H651.723" stroke="#DEDCED" stroke-width="1.13704"/>
<path d="M656.778 372.873V382.97" stroke="#DEDCED" stroke-width="1.13704"/>
<path d="M661.905 378.073H651.723" stroke="#DEDCED" stroke-width="1.13704"/>
<path d="M497.337 372.873V382.97" stroke="#DEDCED" stroke-width="1.13704"/>
<path d="M502.465 378.073H492.283" stroke="#DEDCED" stroke-width="1.13704"/>
</g>
<g opacity="0.5">
<path d="M1134.5 213.692V223.788" stroke="#DEDCED" stroke-width="1.13704"/>
<path d="M1139.62 218.891H1129.44" stroke="#DEDCED" stroke-width="1.13704"/>
<path d="M1293.94 213.692V223.788" stroke="#DEDCED" stroke-width="1.13704"/>
<path d="M1299.07 218.891H1288.89" stroke="#DEDCED" stroke-width="1.13704"/>
<path d="M1293.94 372.873V382.97" stroke="#DEDCED" stroke-width="1.13704"/>
<path d="M1299.07 378.073H1288.89" stroke="#DEDCED" stroke-width="1.13704"/>
<path d="M1134.5 372.873V382.97" stroke="#DEDCED" stroke-width="1.13704"/>
<path d="M1139.63 378.073H1129.45" stroke="#DEDCED" stroke-width="1.13704"/>
</g>
<g opacity="0.5">
<path d="M1770.66 213.692V223.788" stroke="#DEDCED" stroke-width="1.13704"/>
<path d="M1775.79 218.891H1765.61" stroke="#DEDCED" stroke-width="1.13704"/>
<path d="M1930.11 213.692V223.788" stroke="#DEDCED" stroke-width="1.13704"/>
<path d="M1935.24 218.891H1925.06" stroke="#DEDCED" stroke-width="1.13704"/>
<path d="M1930.11 372.873V382.97" stroke="#DEDCED" stroke-width="1.13704"/>
<path d="M1935.24 378.073H1925.06" stroke="#DEDCED" stroke-width="1.13704"/>
<path d="M1770.67 372.873V382.97" stroke="#DEDCED" stroke-width="1.13704"/>
<path d="M1775.8 378.073H1765.62" stroke="#DEDCED" stroke-width="1.13704"/>
</g>
<g opacity="0.5">
<path d="M2087.25 213.692V223.788" stroke="#DEDCED" stroke-width="1.13704"/>
<path d="M2092.37 218.891H2082.19" stroke="#DEDCED" stroke-width="1.13704"/>
<path d="M2087.25 372.873V382.97" stroke="#DEDCED" stroke-width="1.13704"/>
<path d="M2092.38 378.073H2082.2" stroke="#DEDCED" stroke-width="1.13704"/>
</g>
<g opacity="0.5">
<path d="M178.745 213.692V223.788" stroke="#DEDCED" stroke-width="1.13704"/>
<path d="M183.872 218.891H173.69" stroke="#DEDCED" stroke-width="1.13704"/>
<path d="M338.194 213.692V223.788" stroke="#DEDCED" stroke-width="1.13704"/>
<path d="M343.322 218.891H333.14" stroke="#DEDCED" stroke-width="1.13704"/>
<path d="M338.194 372.873V382.97" stroke="#DEDCED" stroke-width="1.13704"/>
<path d="M343.322 378.073H333.14" stroke="#DEDCED" stroke-width="1.13704"/>
<path d="M178.754 372.873V382.97" stroke="#DEDCED" stroke-width="1.13704"/>
<path d="M183.881 378.073H173.699" stroke="#DEDCED" stroke-width="1.13704"/>
</g>
<g opacity="0.5">
<path d="M20.126 213.692V223.788" stroke="#DEDCED" stroke-width="1.13704"/>
<path d="M25.2535 218.891H15.0713" stroke="#DEDCED" stroke-width="1.13704"/>
<path d="M20.126 372.873V382.97" stroke="#DEDCED" stroke-width="1.13704"/>
<path d="M25.2535 378.073H15.0713" stroke="#DEDCED" stroke-width="1.13704"/>
</g>
<g opacity="0.5">
<path d="M815.912 531.921V542.018" stroke="#DEDCED" stroke-width="1.13704"/>
<path d="M821.04 537.121H810.857" stroke="#DEDCED" stroke-width="1.13704"/>
<path d="M975.361 531.921V542.018" stroke="#DEDCED" stroke-width="1.13704"/>
<path d="M980.489 537.121H970.307" stroke="#DEDCED" stroke-width="1.13704"/>
<path d="M975.361 691.103V701.199" stroke="#DEDCED" stroke-width="1.13704"/>
<path d="M980.489 696.303L970.307 696.302" stroke="#DEDCED" stroke-width="1.13704"/>
<path d="M815.921 691.103V701.199" stroke="#DEDCED" stroke-width="1.13704"/>
<path d="M821.048 696.303L810.866 696.302" stroke="#DEDCED" stroke-width="1.13704"/>
</g>
<g opacity="0.5">
<path d="M1452.08 531.921V542.018" stroke="#DEDCED" stroke-width="1.13704"/>
<path d="M1457.21 537.121H1447.02" stroke="#DEDCED" stroke-width="1.13704"/>
<path d="M1611.53 531.921V542.018" stroke="#DEDCED" stroke-width="1.13704"/>
<path d="M1616.66 537.121H1606.47" stroke="#DEDCED" stroke-width="1.13704"/>
<path d="M1611.53 691.103V701.199" stroke="#DEDCED" stroke-width="1.13704"/>
<path d="M1616.66 696.303L1606.47 696.302" stroke="#DEDCED" stroke-width="1.13704"/>
<path d="M1452.09 691.103V701.199" stroke="#DEDCED" stroke-width="1.13704"/>
<path d="M1457.22 696.303L1447.03 696.302" stroke="#DEDCED" stroke-width="1.13704"/>
</g>
<g opacity="0.5">
<path d="M497.328 531.921V542.018" stroke="#DEDCED" stroke-width="1.13704"/>
<path d="M502.456 537.121H492.274" stroke="#DEDCED" stroke-width="1.13704"/>
<path d="M656.778 531.921V542.018" stroke="#DEDCED" stroke-width="1.13704"/>
<path d="M661.905 537.121H651.723" stroke="#DEDCED" stroke-width="1.13704"/>
<path d="M656.778 691.103V701.199" stroke="#DEDCED" stroke-width="1.13704"/>
<path d="M661.905 696.303L651.723 696.302" stroke="#DEDCED" stroke-width="1.13704"/>
<path d="M497.337 691.103V701.199" stroke="#DEDCED" stroke-width="1.13704"/>
<path d="M502.465 696.303L492.283 696.302" stroke="#DEDCED" stroke-width="1.13704"/>
</g>
<g opacity="0.5">
<path d="M1133.5 531.921V542.018" stroke="#DEDCED" stroke-width="1.13704"/>
<path d="M1138.62 537.121H1128.44" stroke="#DEDCED" stroke-width="1.13704"/>
<path d="M1292.94 531.921V542.018" stroke="#DEDCED" stroke-width="1.13704"/>
<path d="M1298.07 537.121H1287.89" stroke="#DEDCED" stroke-width="1.13704"/>
<path d="M1292.94 691.103V701.199" stroke="#DEDCED" stroke-width="1.13704"/>
<path d="M1298.07 696.303L1287.89 696.302" stroke="#DEDCED" stroke-width="1.13704"/>
<path d="M1133.5 691.103V701.199" stroke="#DEDCED" stroke-width="1.13704"/>
<path d="M1138.63 696.303L1128.45 696.302" stroke="#DEDCED" stroke-width="1.13704"/>
</g>
<g opacity="0.5">
<path d="M1770.66 531.921V542.018" stroke="#DEDCED" stroke-width="1.13704"/>
<path d="M1775.79 537.121H1765.61" stroke="#DEDCED" stroke-width="1.13704"/>
<path d="M1930.11 531.921V542.018" stroke="#DEDCED" stroke-width="1.13704"/>
<path d="M1935.24 537.121H1925.06" stroke="#DEDCED" stroke-width="1.13704"/>
<path d="M1930.11 691.103V701.199" stroke="#DEDCED" stroke-width="1.13704"/>
<path d="M1935.24 696.303L1925.06 696.302" stroke="#DEDCED" stroke-width="1.13704"/>
<path d="M1770.67 691.103V701.199" stroke="#DEDCED" stroke-width="1.13704"/>
<path d="M1775.8 696.303L1765.62 696.302" stroke="#DEDCED" stroke-width="1.13704"/>
</g>
<g opacity="0.5">
<path d="M2087.25 531.921V542.018" stroke="#DEDCED" stroke-width="1.13704"/>
<path d="M2092.37 537.121H2082.19" stroke="#DEDCED" stroke-width="1.13704"/>
<path d="M2087.25 691.103V701.199" stroke="#DEDCED" stroke-width="1.13704"/>
<path d="M2092.38 696.303L2082.2 696.302" stroke="#DEDCED" stroke-width="1.13704"/>
</g>
<g opacity="0.5">
<path d="M178.745 531.921V542.018" stroke="#DEDCED" stroke-width="1.13704"/>
<path d="M183.872 537.121H173.69" stroke="#DEDCED" stroke-width="1.13704"/>
<path d="M338.194 531.921V542.018" stroke="#DEDCED" stroke-width="1.13704"/>
<path d="M343.322 537.121H333.14" stroke="#DEDCED" stroke-width="1.13704"/>
<path d="M338.194 691.103V701.199" stroke="#DEDCED" stroke-width="1.13704"/>
<path d="M343.322 696.303L333.14 696.302" stroke="#DEDCED" stroke-width="1.13704"/>
<path d="M178.754 691.103V701.199" stroke="#DEDCED" stroke-width="1.13704"/>
<path d="M183.881 696.303L173.699 696.302" stroke="#DEDCED" stroke-width="1.13704"/>
</g>
<g opacity="0.5">
<path d="M20.126 531.921V542.018" stroke="#DEDCED" stroke-width="1.13704"/>
<path d="M25.2535 537.121H15.0713" stroke="#DEDCED" stroke-width="1.13704"/>
<path d="M20.126 691.103V701.199" stroke="#DEDCED" stroke-width="1.13704"/>
<path d="M25.2535 696.302H15.0713" stroke="#DEDCED" stroke-width="1.13704"/>
</g>
<g opacity="0.5">
<path d="M815.912 850.04V860.136" stroke="#DEDCED" stroke-width="1.13704"/>
<path d="M821.04 855.239H810.857" stroke="#DEDCED" stroke-width="1.13704"/>
<path d="M975.361 850.04V860.136" stroke="#DEDCED" stroke-width="1.13704"/>
<path d="M980.489 855.239H970.307" stroke="#DEDCED" stroke-width="1.13704"/>
<path d="M975.361 1009.22V1019.32" stroke="#DEDCED" stroke-width="1.13704"/>
<path d="M980.489 1014.42H970.307" stroke="#DEDCED" stroke-width="1.13704"/>
<path d="M815.921 1009.22V1019.32" stroke="#DEDCED" stroke-width="1.13704"/>
<path d="M821.048 1014.42H810.866" stroke="#DEDCED" stroke-width="1.13704"/>
</g>
<g opacity="0.5">
<path d="M1452.08 850.04V860.136" stroke="#DEDCED" stroke-width="1.13704"/>
<path d="M1457.21 855.239H1447.02" stroke="#DEDCED" stroke-width="1.13704"/>
<path d="M1611.53 850.04V860.136" stroke="#DEDCED" stroke-width="1.13704"/>
<path d="M1616.66 855.239H1606.47" stroke="#DEDCED" stroke-width="1.13704"/>
<path d="M1611.53 1009.22V1019.32" stroke="#DEDCED" stroke-width="1.13704"/>
<path d="M1616.66 1014.42H1606.47" stroke="#DEDCED" stroke-width="1.13704"/>
<path d="M1453.09 1009.22V1019.32" stroke="#DEDCED" stroke-width="1.13704"/>
<path d="M1458.22 1014.42H1448.03" stroke="#DEDCED" stroke-width="1.13704"/>
</g>
<g opacity="0.5">
<path d="M497.328 850.04V860.136" stroke="#DEDCED" stroke-width="1.13704"/>
<path d="M502.456 855.239H492.274" stroke="#DEDCED" stroke-width="1.13704"/>
<path d="M656.778 850.04V860.136" stroke="#DEDCED" stroke-width="1.13704"/>
<path d="M661.905 855.239H651.723" stroke="#DEDCED" stroke-width="1.13704"/>
<path d="M656.778 1009.22V1019.32" stroke="#DEDCED" stroke-width="1.13704"/>
<path d="M661.905 1014.42H651.723" stroke="#DEDCED" stroke-width="1.13704"/>
<path d="M497.337 1009.22V1019.32" stroke="#DEDCED" stroke-width="1.13704"/>
<path d="M502.465 1014.42H492.283" stroke="#DEDCED" stroke-width="1.13704"/>
</g>
<g opacity="0.5">
<path d="M1134.5 850.04V860.136" stroke="#DEDCED" stroke-width="1.13704"/>
<path d="M1139.62 855.239H1129.44" stroke="#DEDCED" stroke-width="1.13704"/>
<path d="M1293.94 850.04V860.136" stroke="#DEDCED" stroke-width="1.13704"/>
<path d="M1299.07 855.239H1288.89" stroke="#DEDCED" stroke-width="1.13704"/>
<path d="M1293.94 1009.22V1019.32" stroke="#DEDCED" stroke-width="1.13704"/>
<path d="M1299.07 1014.42H1288.89" stroke="#DEDCED" stroke-width="1.13704"/>
<path d="M1134.5 1009.22V1019.32" stroke="#DEDCED" stroke-width="1.13704"/>
<path d="M1139.63 1014.42H1129.45" stroke="#DEDCED" stroke-width="1.13704"/>
</g>
<g opacity="0.5">
<path d="M1770.66 850.04V860.136" stroke="#DEDCED" stroke-width="1.13704"/>
<path d="M1775.79 855.239H1765.61" stroke="#DEDCED" stroke-width="1.13704"/>
<path d="M1930.11 850.04V860.136" stroke="#DEDCED" stroke-width="1.13704"/>
<path d="M1935.24 855.239H1925.06" stroke="#DEDCED" stroke-width="1.13704"/>
<path d="M1930.11 1009.22V1019.32" stroke="#DEDCED" stroke-width="1.13704"/>
<path d="M1935.24 1014.42H1925.06" stroke="#DEDCED" stroke-width="1.13704"/>
<path d="M1770.67 1009.22V1019.32" stroke="#DEDCED" stroke-width="1.13704"/>
<path d="M1775.8 1014.42H1765.62" stroke="#DEDCED" stroke-width="1.13704"/>
</g>
<g opacity="0.5">
<path d="M2087.25 850.04V860.136" stroke="#DEDCED" stroke-width="1.13704"/>
<path d="M2092.37 855.239H2082.19" stroke="#DEDCED" stroke-width="1.13704"/>
<path d="M2087.25 1009.22V1019.32" stroke="#DEDCED" stroke-width="1.13704"/>
<path d="M2092.38 1014.42H2082.2" stroke="#DEDCED" stroke-width="1.13704"/>
</g>
<g opacity="0.5">
<path d="M178.745 850.152V860.248" stroke="#DEDCED" stroke-width="1.13704"/>
<path d="M183.872 855.351L173.69 855.352" stroke="#DEDCED" stroke-width="1.13704"/>
<path d="M338.194 850.152V860.248" stroke="#DEDCED" stroke-width="1.13704"/>
<path d="M343.322 855.352H333.14" stroke="#DEDCED" stroke-width="1.13704"/>
<path d="M338.194 1009.33V1019.43" stroke="#DEDCED" stroke-width="1.13704"/>
<path d="M343.322 1014.53H333.14" stroke="#DEDCED" stroke-width="1.13704"/>
<path d="M178.754 1009.33V1019.43" stroke="#DEDCED" stroke-width="1.13704"/>
<path d="M183.881 1014.53H173.699" stroke="#DEDCED" stroke-width="1.13704"/>
</g>
<g opacity="0.5">
<path d="M20.126 850.04V860.136" stroke="#DEDCED" stroke-width="1.13704"/>
<path d="M25.2535 855.239H15.0713" stroke="#DEDCED" stroke-width="1.13704"/>
<path d="M20.126 1009.22V1019.32" stroke="#DEDCED" stroke-width="1.13704"/>
<path d="M25.2535 1014.42H15.0713" stroke="#DEDCED" stroke-width="1.13704"/>
</g>
<g opacity="0.5">
<path d="M815.912 1168.52V1178.61" stroke="#DEDCED" stroke-width="1.13704"/>
<path d="M821.04 1173.72H810.857" stroke="#DEDCED" stroke-width="1.13704"/>
<path d="M975.361 1168.52V1178.61" stroke="#DEDCED" stroke-width="1.13704"/>
<path d="M980.489 1173.72H970.307" stroke="#DEDCED" stroke-width="1.13704"/>
</g>
<g opacity="0.5">
<path d="M1452.08 1168.52V1178.61" stroke="#DEDCED" stroke-width="1.13704"/>
<path d="M1457.21 1173.72H1447.02" stroke="#DEDCED" stroke-width="1.13704"/>
<path d="M1611.53 1168.52V1178.61" stroke="#DEDCED" stroke-width="1.13704"/>
<path d="M1616.66 1173.72H1606.47" stroke="#DEDCED" stroke-width="1.13704"/>
</g>
<g opacity="0.5">
<path d="M497.328 1168.52V1178.61" stroke="#DEDCED" stroke-width="1.13704"/>
<path d="M502.456 1173.72H492.274" stroke="#DEDCED" stroke-width="1.13704"/>
<path d="M656.778 1168.52V1178.61" stroke="#DEDCED" stroke-width="1.13704"/>
<path d="M661.905 1173.72H651.723" stroke="#DEDCED" stroke-width="1.13704"/>
</g>
<g opacity="0.5">
<path d="M1134.5 1168.52V1178.61" stroke="#DEDCED" stroke-width="1.13704"/>
<path d="M1139.62 1173.72H1129.44" stroke="#DEDCED" stroke-width="1.13704"/>
<path d="M1293.94 1168.52V1178.61" stroke="#DEDCED" stroke-width="1.13704"/>
<path d="M1299.07 1173.72H1288.89" stroke="#DEDCED" stroke-width="1.13704"/>
</g>
<g opacity="0.5">
<path d="M1770.66 1168.52V1178.61" stroke="#DEDCED" stroke-width="1.13704"/>
<path d="M1775.79 1173.72H1765.61" stroke="#DEDCED" stroke-width="1.13704"/>
<path d="M1930.11 1168.52V1178.61" stroke="#DEDCED" stroke-width="1.13704"/>
<path d="M1935.24 1173.72H1925.06" stroke="#DEDCED" stroke-width="1.13704"/>
</g>
<g opacity="0.5">
<path d="M2087.25 1168.52V1178.61" stroke="#DEDCED" stroke-width="1.13704"/>
<path d="M2092.37 1173.72H2082.19" stroke="#DEDCED" stroke-width="1.13704"/>
</g>
<g opacity="0.5">
<path d="M178.745 1168.38V1178.48" stroke="#DEDCED" stroke-width="1.13704"/>
<path d="M183.872 1173.58H173.69" stroke="#DEDCED" stroke-width="1.13704"/>
<path d="M338.194 1168.38V1178.48" stroke="#DEDCED" stroke-width="1.13704"/>
<path d="M343.322 1173.58H333.14" stroke="#DEDCED" stroke-width="1.13704"/>
</g>
<g opacity="0.5">
<path d="M20.126 1168.52V1178.61" stroke="#DEDCED" stroke-width="1.13704"/>
<path d="M25.2535 1173.72H15.0713" stroke="#DEDCED" stroke-width="1.13704"/>
</g>
<g opacity="0.5">
<path d="M338.194 54.5512V64.6477" stroke="#DEDCED" stroke-width="1.13704"/>
<path d="M343.322 59.7508H333.14" stroke="#DEDCED" stroke-width="1.13704"/>
<path d="M178.754 54.5512V64.6477" stroke="#DEDCED" stroke-width="1.13704"/>
<path d="M183.881 59.7508H173.699" stroke="#DEDCED" stroke-width="1.13704"/>
</g>
<g opacity="0.5">
<path d="M975.361 54.6085V64.705" stroke="#DEDCED" stroke-width="1.13704"/>
<path d="M980.489 59.8082H970.307" stroke="#DEDCED" stroke-width="1.13704"/>
<path d="M815.921 54.6085V64.705" stroke="#DEDCED" stroke-width="1.13704"/>
<path d="M821.048 59.8082H810.866" stroke="#DEDCED" stroke-width="1.13704"/>
</g>
<g opacity="0.5">
<path d="M1611.53 54.6085V64.705" stroke="#DEDCED" stroke-width="1.13704"/>
<path d="M1616.66 59.8082H1606.47" stroke="#DEDCED" stroke-width="1.13704"/>
<path d="M1452.09 54.6085V64.705" stroke="#DEDCED" stroke-width="1.13704"/>
<path d="M1457.22 59.8082H1447.03" stroke="#DEDCED" stroke-width="1.13704"/>
</g>
<g opacity="0.5">
<path d="M656.778 54.6085V64.705" stroke="#DEDCED" stroke-width="1.13704"/>
<path d="M661.905 59.8082H651.723" stroke="#DEDCED" stroke-width="1.13704"/>
<path d="M497.337 54.6085V64.705" stroke="#DEDCED" stroke-width="1.13704"/>
<path d="M502.465 59.8082H492.283" stroke="#DEDCED" stroke-width="1.13704"/>
</g>
<g opacity="0.5">
<path d="M1293.94 54.6085V64.705" stroke="#DEDCED" stroke-width="1.13704"/>
<path d="M1299.07 59.8082H1288.89" stroke="#DEDCED" stroke-width="1.13704"/>
<path d="M1134.5 54.6085V64.705" stroke="#DEDCED" stroke-width="1.13704"/>
<path d="M1139.63 59.8082H1129.45" stroke="#DEDCED" stroke-width="1.13704"/>
</g>
<g opacity="0.5">
<path d="M1930.11 54.6085V64.705" stroke="#DEDCED" stroke-width="1.13704"/>
<path d="M1935.24 59.8082H1925.06" stroke="#DEDCED" stroke-width="1.13704"/>
<path d="M1770.67 54.6085V64.705" stroke="#DEDCED" stroke-width="1.13704"/>
<path d="M1775.8 59.8082H1765.62" stroke="#DEDCED" stroke-width="1.13704"/>
</g>
<g opacity="0.5">
<path d="M2087.25 54.6085V64.705" stroke="#DEDCED" stroke-width="1.13704"/>
<path d="M2092.38 59.8082H2082.2" stroke="#DEDCED" stroke-width="1.13704"/>
</g>
<g opacity="0.5">
<path d="M20.126 54.6085V64.705" stroke="#DEDCED" stroke-width="1.13704"/>
<path d="M25.2535 59.8082H15.0713" stroke="#DEDCED" stroke-width="1.13704"/>
</g>
</g>
</g>
</svg>
