<svg width="30" height="30" viewBox="0 0 30 30" fill="none" xmlns="http://www.w3.org/2000/svg">
<circle cx="15" cy="15" r="15" fill="url(#paint0_linear_2_61)"/>
<path d="M26.3501 14.4563C26.3501 17.5281 25.0976 20.4326 22.8274 22.6284C20.5805 24.8033 17.6365 26 14.5438 26C8.19796 26 3.01862 20.8207 3.00003 14.4586C2.99306 11.5541 4.09678 8.77736 6.02771 6.83714C7.87963 4.98057 10.3194 4 13.0845 4C17.4715 4 21.0452 7.5714 21.0452 11.9607L21.022 16.4174C21.022 18.511 19.3444 20.2142 17.281 20.2142C16.1122 20.2142 15.0666 19.6658 14.3811 18.8107C13.7003 19.71 12.6268 20.2886 11.4231 20.2886C9.36209 20.2886 7.68212 18.5853 7.68212 16.4918V11.4611C7.68212 11.008 8.04925 10.6409 8.50236 10.6409C8.73007 10.6409 8.93223 10.7315 9.08094 10.8802C9.22965 11.0289 9.32027 11.2334 9.32027 11.4611V16.4918C9.32027 17.6838 10.266 18.6527 11.4231 18.6527C12.5803 18.6527 13.526 17.6838 13.526 16.4918V11.4611C13.526 11.3891 13.5353 11.3171 13.5539 11.2497C13.619 10.8616 13.9536 10.5689 14.3579 10.5689C14.5856 10.5689 14.7877 10.6595 14.9364 10.8105C15.0852 10.9592 15.1781 11.1614 15.1781 11.3891V16.4197C15.1781 17.6117 16.1215 18.5807 17.281 18.5807C18.4405 18.5807 19.3839 17.6117 19.3839 16.4197V11.963C19.3839 8.4869 16.5583 5.66139 13.0845 5.66139C10.7679 5.66139 8.73472 6.47465 7.20113 8.01289C5.57692 9.64174 4.6498 11.9909 4.6591 14.4586C4.67536 19.9098 9.10882 24.3456 14.5438 24.3456C19.9787 24.3456 24.691 19.8192 24.691 14.4609C24.691 11.7888 23.6384 9.2839 21.733 7.40874C21.4054 7.08809 21.4008 6.56295 21.7214 6.23764C22.0421 5.91001 22.5695 5.90537 22.8948 6.22835C25.1209 8.41487 26.3501 11.3403 26.3501 14.4609V14.4563Z" fill="white"/>
<defs>
<linearGradient id="paint0_linear_2_61" x1="15" y1="0" x2="15" y2="30" gradientUnits="userSpaceOnUse">
<stop stop-color="#ED2032"/>
<stop offset="1" stop-color="#211F53"/>
</linearGradient>
</defs>
</svg>
