<svg width="335" height="79" viewBox="0 0 335 79" fill="none" xmlns="http://www.w3.org/2000/svg">
<path d="M161.48 18.41C161.48 18.76 161.48 19.11 161.43 19.44C161.38 19.92 161.29 20.37 161.16 20.8C160.89 21.63 157.38 25.96 156 27.65C155.75 26.63 155.61 25.96 155.42 25.28C154.14 20.6 151.19 17.53 146.47 16.4C141.72 15.26 137.63 16.68 134.6 20.46C129.78 26.46 125.06 32.55 120.43 38.7C114.31 46.82 103.06 47.73 95.64 42.26C95.57 42.21 95.5 42.16 95.43 42.11C93.35 40.53 91.58 38.44 90.33 35.85C90.22 35.63 90.13 35.42 90.06 35.21V33.54C90.06 33.44 90.06 33.35 90.09 33.25C90.23 32.96 90.44 32.68 90.73 32.39C90.83 32.29 90.92 32.19 91.02 32.09C91.13 31.97 91.25 31.84 91.35 31.72C92.21 30.75 93.01 29.66 94.01 28.44C94.23 29.34 94.4 29.99 94.56 30.63C94.71 31.21 94.87 31.77 95.08 32.3C95.08 32.3 95.09 32.33 95.1 32.35C95.19 32.62 95.3 32.88 95.42 33.13C95.49 33.28 95.55 33.44 95.63 33.58C97.22 36.8 99.93 38.9 103.76 39.77C108.53 40.85 112.58 39.28 115.6 35.53C120.15 29.86 124.58 24.1 128.94 18.29C135.51 9.52998 145.54 7.83998 154.62 14.07C154.86 14.23 155.11 14.36 155.7 14.71C155.75 13.76 155.81 13.02 155.81 12.28C155.81 11.95 155.83 11.65 155.86 11.38C156.4 7.16998 160.91 10.68 161.42 17.35C161.45 17.69 161.46 18.04 161.47 18.39V18.41H161.48Z" fill="white"/>
<path d="M57.2 22.19C57.08 22.36 56.96 22.52 56.84 22.68L50.64 30.29V30.26L57.2 22.19Z" fill="white"/>
<path d="M122.19 22.42C121.13 24.05 119.87 25.54 118.5 27.33C118.13 26.05 117.94 25.08 117.59 24.17C115.91 19.72 112.73 16.97 108.04 16.22C103.57 15.5 99.87 17.08 97 20.51C96.55 21.05 96.09 21.59 95.64 22.14C95.56 22.23 95.49 22.33 95.41 22.42C95.08 22.82 94.74 23.22 94.41 23.62C94.39 23.65 94.36 23.67 94.35 23.7C90.18 28.74 86.07 33.81 81.86 38.81C77.22 44.3 71.25 46.38 64.27 44.83C57.97 43.43 53.71 39.66 51.62 33.84L56.18 28.46C56.22 28.94 56.29 29.43 56.39 29.94C57.31 34.66 60.27 37.88 64.96 39.18C69.94 40.56 74.18 39.05 77.48 35.17C81.66 30.27 85.75 25.3 89.87 20.35C89.94 20.27 90.01 20.18 90.08 20.1C91.15 18.82 92.21 17.54 93.29 16.27C93.95 15.48 94.67 14.77 95.44 14.15C95.51 14.1 95.57 14.04 95.65 13.99C104.08 7.31002 117.75 10.16 122.19 20.44C122.44 21.02 122.51 21.94 122.2 22.41H122.19V22.42Z" fill="white"/>
<path d="M198.72 22.19C198.47 22.48 198.19 22.81 197.89 23.15C196.58 24.67 194.92 26.54 193.98 27.75C193.72 26.73 193.57 26.05 193.37 25.38C191.97 20.74 188.94 17.73 184.21 16.7C179.62 15.7 175.69 17.11 172.69 20.69C168.9 25.21 165.14 29.75 161.44 34.34C160.21 35.86 158.99 37.38 157.78 38.92C157.18 39.67 156.55 40.36 155.87 40.99C147.5 48.75 133.56 46.84 128.1 36.39C127.37 34.99 127.23 33.92 128.41 32.7C129.5 31.58 130.38 30.24 131.53 28.77C131.81 29.84 131.97 30.6 132.2 31.33C133.66 35.96 136.79 38.89 141.52 39.84C146.11 40.76 150.03 39.22 153 35.65C153.99 34.46 154.97 33.27 155.96 32.07C156.19 31.8 156.42 31.51 156.65 31.23C160.51 26.53 164.33 21.78 168.19 17.08C174.79 9.05997 186.56 8.82997 193.71 15.33C195.17 16.65 196.43 18.24 197.42 20.11C198.16 21.51 199.83 20.89 198.73 22.19H198.72Z" fill="white"/>
<path d="M95.63 33.6V44.36C95.63 45.24 94.92 45.94 94.04 45.94H91.64C90.76 45.94 90.05 45.24 90.05 44.36V33.56C90.05 33.46 90.05 33.37 90.08 33.27C90.22 32.98 90.43 32.7 90.72 32.41C90.82 32.31 90.91 32.21 91.01 32.11C91.18 32.04 91.36 31.99 91.55 31.98H94.04C94.44 31.98 94.81 32.13 95.09 32.37C95.18 32.64 95.29 32.9 95.41 33.15C95.48 33.3 95.54 33.46 95.62 33.6H95.63Z" fill="white"/>
<path d="M95.63 1.59001V22.14C95.55 22.23 95.48 22.33 95.4 22.42C95.07 22.82 94.73 23.22 94.4 23.62C94.38 23.65 94.35 23.67 94.34 23.7C94.25 23.72 94.15 23.73 94.06 23.73H91.66C90.78 23.73 90.07 23.02 90.07 22.15V1.59001C90.07 0.72001 90.78 0.0100098 91.66 0.0100098H94.06C94.94 0.0100098 95.65 0.72001 95.65 1.59001H95.63Z" fill="white"/>
<path d="M80.85 21.33C80.07 22.18 79.3 23.03 78.53 23.87C76.41 26.17 74.29 28.46 72.16 30.75C70.35 32.71 68.73 33.05 67.34 31.77C65.93 30.47 66.13 29 68.01 26.87C70.46 24.1 72.91 21.32 75.34 18.55C72.28 15 65.8 14.58 61.38 17.88C59.77 19.08 58.4 20.6 57.3 22.06C57.27 22.1 57.24 22.15 57.2 22.19L50.64 30.26L42.6 40.16C42.52 40.25 42.44 40.34 42.36 40.42C40.06 43.47 36.44 45.43 32.38 45.43C25.45 45.43 19.81 39.7 19.81 32.66V12.48C19.81 10.96 21.04 9.72998 22.56 9.72998C23.32 9.72998 24.01 10.04 24.51 10.53C25.01 11.02 25.31 11.72 25.31 12.48V32.66C25.31 36.67 28.48 39.93 32.38 39.93C34.67 39.93 36.57 38.98 37.86 37.24L44.96 28.44C44.96 28.44 55.32 14.5 59.5 12.17C66.42 8.30998 75.27 9.56998 80.78 15.27L80.8 15.29C82.42 16.96 82.41 19.62 80.85 21.34V21.33Z" fill="white"/>
<path d="M161.16 20.81C160.87 21.23 160.4 21.5 159.86 21.5H157.46C156.58 21.5 155.88 20.79 155.88 19.91V1.58C155.88 0.71 156.58 0 157.46 0H159.86C160.74 0 161.45 0.71 161.45 1.58V19.43L161.18 20.79L161.16 20.81Z" fill="white"/>
<path d="M237.53 18.41C237.53 18.76 237.53 19.09 237.49 19.41C237.44 19.91 237.35 20.38 237.2 20.82C236.95 21.64 233.43 25.96 232.05 27.66C231.8 26.64 231.66 25.97 231.47 25.29C230.19 20.61 227.24 17.54 222.52 16.41C217.77 15.27 213.68 16.69 210.65 20.47C206.84 25.21 203.09 30.01 199.4 34.86C198.42 36.14 197.45 37.42 196.48 38.71C195.68 39.77 194.79 40.71 193.84 41.53C185.35 48.79 171.52 46.47 166.38 35.86C165.72 34.51 165.68 33.53 166.78 32.41C167.9 31.28 168.83 29.97 170.07 28.46C170.29 29.36 170.45 30.01 170.61 30.65C171.83 35.55 174.92 38.68 179.81 39.79C184.58 40.87 188.63 39.3 191.65 35.55C192.38 34.64 193.11 33.72 193.83 32.81C194.3 32.22 194.77 31.63 195.23 31.04C198.53 26.84 201.78 22.59 205 18.32C211.57 9.56002 221.6 7.87002 230.68 14.1C230.91 14.26 231.17 14.39 231.76 14.74C231.81 13.79 231.87 13.05 231.87 12.31C231.87 12 231.88 11.72 231.92 11.47C232.43 7.14002 237.01 10.71 237.49 17.46C237.51 17.77 237.52 18.1 237.53 18.42V18.41Z" fill="white"/>
<path d="M245.01 16.12C239.93 22.3 234.17 29.52 229.05 35.66C226.07 39.23 222.15 40.77 217.57 39.85C212.84 38.9 209.72 35.96 208.25 31.33C208.02 30.6 207.86 29.84 207.58 28.77C206.43 30.23 205.55 31.57 204.46 32.7C203.28 33.92 203.41 34.99 204.14 36.39C210.04 47.67 225.84 49 233.82 38.92C238.69 32.77 243.69 26.71 248.73 20.7C251.73 17.12 253.48 14.62 259.78 15.72C263.64 16.39 252.94 6.47002 245 16.13H245.01V16.12Z" fill="white"/>
<path d="M237.49 1.59V19.41C237.44 19.91 237.35 20.38 237.2 20.82C236.93 21.23 236.45 21.5 235.91 21.5H233.51C232.63 21.5 231.92 20.79 231.92 19.91V1.58C231.92 0.71 232.63 0 233.51 0H235.91C236.79 0 237.5 0.71 237.5 1.58L237.49 1.59Z" fill="white"/>
<path d="M161.44 32.61V44.11C161.44 44.99 160.73 45.69 159.85 45.69H157.45C156.57 45.69 155.87 44.99 155.87 44.11V32.61C155.87 32.42 155.9 32.25 155.96 32.08C156.19 31.81 156.42 31.52 156.65 31.24C156.88 31.1 157.16 31.02 157.45 31.02H159.85C160.73 31.02 161.44 31.73 161.44 32.61Z" fill="white"/>
<path d="M199.39 32.61V44.11C199.39 44.99 198.68 45.69 197.81 45.69H195.4C194.53 45.69 193.82 44.99 193.82 44.11V32.8C194.29 32.21 194.76 31.62 195.22 31.03H197.81C198.68 31.03 199.39 31.74 199.39 32.62V32.61Z" fill="white"/>
<path d="M199.27 12.92V21.56L198.72 22.2C198.58 22.37 198.42 22.55 198.26 22.73L197.9 23.15H197.89C197.82 23.15 197.75 23.15 197.68 23.15H195.28C194.4 23.15 193.7 22.44 193.7 21.56V12.9C193.7 12.03 194.4 11.32 195.28 11.32H197.68C198.56 11.32 199.27 12.03 199.27 12.9V12.92Z" fill="white"/>
<path d="M236.29 31.02H233.88C233.007 31.02 232.3 31.7274 232.3 32.6V44.11C232.3 44.9826 233.007 45.69 233.88 45.69H236.29C237.163 45.69 237.87 44.9826 237.87 44.11V32.6C237.87 31.7274 237.163 31.02 236.29 31.02Z" fill="white"/>
<path d="M270.47 30.81C269.66 29.51 268.33 28.38 266.48 27.4C264.63 26.42 262.11 25.61 258.92 24.97C256.63 24.51 254.88 24.03 253.7 23.54C252.51 23.05 251.71 22.5 251.31 21.88C250.91 21.26 250.71 20.58 250.71 19.81C250.71 18.58 251.35 17.64 252.65 17.01C253.95 16.37 255.53 16.05 257.41 16.05C259.02 16.05 260.45 16.24 261.68 16.63C262.91 17.01 264.06 17.71 265.12 18.73C265.76 19.33 266.54 19.71 267.48 19.88C268.41 20.05 269.22 19.9 269.9 19.43C270.58 18.92 270.94 18.29 270.98 17.55C271.02 16.81 270.75 16.09 270.15 15.42C268.87 13.85 267.15 12.61 264.99 11.72C262.82 10.82 260.33 10.38 257.53 10.38C255.36 10.38 253.28 10.73 251.28 11.43C249.29 12.13 247.65 13.2 246.37 14.62C246.28 14.73 246.18 14.84 246.09 14.95C246.03 15.02 246.03 15.03 246.09 14.95C245.01 16.32 244.46 18 244.46 19.99C244.46 21.6 244.87 23.05 245.7 24.33C246.13 25.01 246.69 25.65 247.36 26.24C249.29 27.94 252.41 29.22 256.7 30.07C260.01 30.67 262.3 31.43 263.55 32.36C264.81 33.3 265.41 34.4 265.37 35.68C265.33 36.96 264.66 37.99 263.36 38.8C262.06 39.61 260.18 40.01 257.71 40.01C255.76 40.01 253.98 39.66 252.39 38.96C250.8 38.26 249.64 37.5 248.92 36.69C248.32 36.05 247.61 35.69 246.78 35.58C245.95 35.47 245.11 35.76 244.27 36.44C243.55 37 243.13 37.71 243.03 38.58C242.92 39.45 243.19 40.23 243.83 40.91C245.23 42.31 247.2 43.47 249.73 44.38C252.26 45.3 255.01 45.75 257.98 45.75C260.95 45.75 263.52 45.28 265.54 44.35C267.56 43.42 269.08 42.16 270.13 40.59C271.18 39.02 271.7 37.25 271.7 35.3C271.7 33.6 271.29 32.1 270.49 30.81H270.47Z" fill="white"/>
<path d="M44.96 12.48V24.21L39.46 30.98V12.49C39.46 10.97 40.69 9.73999 42.21 9.73999C42.97 9.73999 43.66 10.05 44.16 10.54C44.66 11.03 44.96 11.73 44.96 12.49V12.48Z" fill="white"/>
<path d="M12.57 45.43C5.63999 45.43 0 39.7 0 32.66V12.48C0 10.96 1.23 9.72998 2.75 9.72998C4.27 9.72998 5.5 10.96 5.5 12.48V32.66C5.5 36.67 8.66999 39.93 12.57 39.93C16.47 39.93 19.64 36.67 19.64 32.66V12.48C19.64 10.96 20.87 9.72998 22.39 9.72998C23.91 9.72998 25.14 10.96 25.14 12.48V32.66C25.14 39.7 19.5 45.43 12.57 45.43Z" fill="white"/>
<path d="M281.97 21.83V21.55C282.05 19.29 282.6 17.27 283.6 15.53C284.62 13.76 286.03 12.39 287.79 11.41C289.53 10.45 291.55 9.96002 293.78 9.96002C296.01 9.96002 297.96 10.42 299.69 11.32C301.47 12.25 302.86 13.54 303.86 15.17C303.97 15.35 304.07 15.52 304.16 15.71L299.98 19.81C299.81 18.55 299.28 17.51 298.37 16.67C297.21 15.6 295.72 15.08 293.82 15.08C291.92 15.08 290.34 15.65 289.14 16.83C287.93 18.01 287.31 19.58 287.23 21.63L287.21 21.86C287.2 23.29 286.03 24.45 284.58 24.45C283.13 24.45 281.95 23.27 281.95 21.81L281.97 21.83Z" fill="white"/>
<path d="M306.18 42.61C306.18 43.33 305.88 43.99 305.41 44.46C304.94 44.93 304.27 45.23 303.56 45.23H284.31C282.78 45.23 281.53 43.98 281.53 42.44C281.53 41.67 281.85 40.92 282.42 40.4L293.2 30.45L295.26 28.56C295.26 28.56 295.39 28.43 295.65 28.18C296.29 27.6 296.85 27.01 297.36 26.46C297.37 26.46 297.39 26.44 297.4 26.42L305.17 18.65C305.29 19.32 305.36 20.02 305.36 20.75C305.36 22.77 304.83 24.76 303.77 26.66C302.77 28.48 301.2 30.38 299.12 32.3L290.73 39.98H303.55C305 39.98 306.18 41.15 306.18 42.61Z" fill="white"/>
<path d="M334.17 12.48V32.66C334.17 39.7 328.53 45.43 321.59 45.43C314.65 45.43 309.02 39.7 309.02 32.66V22.41C304.61 26.82 299.13 32.3 299.12 32.31L294.3 36.73L290.5 32.93L309.01 14.76C309.01 14.76 310.23 13.26 311.76 13.26C312.52 13.26 313.21 13.57 313.7 14.07C314.19 14.57 314.51 15.25 314.51 16.01V32.66C314.51 36.67 317.69 39.93 321.58 39.93C325.47 39.93 328.65 36.66 328.65 32.66V12.48C328.65 10.96 329.89 9.72998 331.4 9.72998C332.16 9.72998 332.85 10.04 333.35 10.54C333.85 11.04 334.16 11.72 334.16 12.48H334.17Z" fill="white"/>
<path d="M161.48 18.41C161.48 18.76 161.48 19.11 161.43 19.44C161.38 19.92 161.29 20.37 161.16 20.8C160.89 21.63 157.38 25.96 156 27.65C155.75 26.63 155.61 25.96 155.42 25.28C154.14 20.6 151.19 17.53 146.47 16.4C141.72 15.26 137.63 16.68 134.6 20.46C129.78 26.46 125.06 32.55 120.43 38.7C114.31 46.82 103.06 47.73 95.64 42.26C95.57 42.21 95.5 42.16 95.43 42.11C93.35 40.53 91.58 38.44 90.33 35.85C90.22 35.63 90.13 35.42 90.06 35.21V33.54C90.06 33.44 90.06 33.35 90.09 33.25C90.23 32.96 90.44 32.68 90.73 32.39C90.83 32.29 90.92 32.19 91.02 32.09C91.13 31.97 91.25 31.84 91.35 31.72C92.21 30.75 93.01 29.66 94.01 28.44C94.23 29.34 94.4 29.99 94.56 30.63C94.71 31.21 94.87 31.77 95.08 32.3C95.08 32.3 95.09 32.33 95.1 32.35C95.19 32.62 95.3 32.88 95.42 33.13C95.49 33.28 95.55 33.44 95.63 33.58C97.22 36.8 99.93 38.9 103.76 39.77C108.53 40.85 112.58 39.28 115.6 35.53C120.15 29.86 124.58 24.1 128.94 18.29C135.51 9.52998 145.54 7.83998 154.62 14.07C154.86 14.23 155.11 14.36 155.7 14.71C155.75 13.76 155.81 13.02 155.81 12.28C155.81 11.95 155.83 11.65 155.86 11.38C156.4 7.16998 160.91 10.68 161.42 17.35C161.45 17.69 161.46 18.04 161.47 18.39V18.41H161.48Z" fill="url(#paint0_linear_3_209)"/>
<path d="M57.2 22.19C57.08 22.36 56.96 22.52 56.84 22.68L50.64 30.29V30.26L57.2 22.19Z" fill="url(#paint1_linear_3_209)"/>
<path d="M122.19 22.42C121.13 24.05 119.87 25.54 118.5 27.33C118.13 26.05 117.94 25.08 117.59 24.17C115.91 19.72 112.73 16.97 108.04 16.22C103.57 15.5 99.87 17.08 97 20.51C96.55 21.05 96.09 21.59 95.64 22.14C95.56 22.23 95.49 22.33 95.41 22.42C95.08 22.82 94.74 23.22 94.41 23.62C94.39 23.65 94.36 23.67 94.35 23.7C90.18 28.74 86.07 33.81 81.86 38.81C77.22 44.3 71.25 46.38 64.27 44.83C57.97 43.43 53.71 39.66 51.62 33.84L56.18 28.46C56.22 28.94 56.29 29.43 56.39 29.94C57.31 34.66 60.27 37.88 64.96 39.18C69.94 40.56 74.18 39.05 77.48 35.17C81.66 30.27 85.75 25.3 89.87 20.35C89.94 20.27 90.01 20.18 90.08 20.1C91.15 18.82 92.21 17.54 93.29 16.27C93.95 15.48 94.67 14.77 95.44 14.15C95.51 14.1 95.57 14.04 95.65 13.99C104.08 7.31002 117.75 10.16 122.19 20.44C122.44 21.02 122.51 21.94 122.2 22.41H122.19V22.42Z" fill="url(#paint2_linear_3_209)"/>
<path d="M198.72 22.19C198.47 22.48 198.19 22.81 197.89 23.15C196.58 24.67 194.92 26.54 193.98 27.75C193.72 26.73 193.57 26.05 193.37 25.38C191.97 20.74 188.94 17.73 184.21 16.7C179.62 15.7 175.69 17.11 172.69 20.69C168.9 25.21 165.14 29.75 161.44 34.34C160.21 35.86 158.99 37.38 157.78 38.92C157.18 39.67 156.55 40.36 155.87 40.99C147.5 48.75 133.56 46.84 128.1 36.39C127.37 34.99 127.23 33.92 128.41 32.7C129.5 31.58 130.38 30.24 131.53 28.77C131.81 29.84 131.97 30.6 132.2 31.33C133.66 35.96 136.79 38.89 141.52 39.84C146.11 40.76 150.03 39.22 153 35.65C153.99 34.46 154.97 33.27 155.96 32.07C156.19 31.8 156.42 31.51 156.65 31.23C160.51 26.53 164.33 21.78 168.19 17.08C174.79 9.05997 186.56 8.82997 193.71 15.33C195.17 16.65 196.43 18.24 197.42 20.11C198.16 21.51 199.83 20.89 198.73 22.19H198.72Z" fill="url(#paint3_linear_3_209)"/>
<path d="M95.63 33.6V44.36C95.63 45.24 94.92 45.94 94.04 45.94H91.64C90.76 45.94 90.05 45.24 90.05 44.36V33.56C90.05 33.46 90.05 33.37 90.08 33.27C90.22 32.98 90.43 32.7 90.72 32.41C90.82 32.31 90.91 32.21 91.01 32.11C91.18 32.04 91.36 31.99 91.55 31.98H94.04C94.44 31.98 94.81 32.13 95.09 32.37C95.18 32.64 95.29 32.9 95.41 33.15C95.48 33.3 95.54 33.46 95.62 33.6H95.63Z" fill="url(#paint4_linear_3_209)"/>
<path d="M95.63 1.59001V22.14C95.55 22.23 95.48 22.33 95.4 22.42C95.07 22.82 94.73 23.22 94.4 23.62C94.38 23.65 94.35 23.67 94.34 23.7C94.25 23.72 94.15 23.73 94.06 23.73H91.66C90.78 23.73 90.07 23.02 90.07 22.15V1.59001C90.07 0.72001 90.78 0.0100098 91.66 0.0100098H94.06C94.94 0.0100098 95.65 0.72001 95.65 1.59001H95.63Z" fill="url(#paint5_linear_3_209)"/>
<path d="M80.85 21.33C80.07 22.18 79.3 23.03 78.53 23.87C76.41 26.17 74.29 28.46 72.16 30.75C70.35 32.71 68.73 33.05 67.34 31.77C65.93 30.47 66.13 29 68.01 26.87C70.46 24.1 72.91 21.32 75.34 18.55C72.28 15 65.8 14.58 61.38 17.88C59.77 19.08 58.4 20.6 57.3 22.06C57.27 22.1 57.24 22.15 57.2 22.19L50.64 30.26L42.6 40.16C42.52 40.25 42.44 40.34 42.36 40.42C40.06 43.47 36.44 45.43 32.38 45.43C25.45 45.43 19.81 39.7 19.81 32.66V12.48C19.81 10.96 21.04 9.72998 22.56 9.72998C23.32 9.72998 24.01 10.04 24.51 10.53C25.01 11.02 25.31 11.72 25.31 12.48V32.66C25.31 36.67 28.48 39.93 32.38 39.93C34.67 39.93 36.57 38.98 37.86 37.24L44.96 28.44C44.96 28.44 55.32 14.5 59.5 12.17C66.42 8.30998 75.27 9.56998 80.78 15.27L80.8 15.29C82.42 16.96 82.41 19.62 80.85 21.34V21.33Z" fill="url(#paint6_linear_3_209)"/>
<path d="M161.16 20.81C160.87 21.23 160.4 21.5 159.86 21.5H157.46C156.58 21.5 155.88 20.79 155.88 19.91V1.58C155.88 0.71 156.58 0 157.46 0H159.86C160.74 0 161.45 0.71 161.45 1.58V19.43L161.18 20.79L161.16 20.81Z" fill="url(#paint7_linear_3_209)"/>
<path d="M237.53 18.41C237.53 18.76 237.53 19.09 237.49 19.41C237.44 19.91 237.35 20.38 237.2 20.82C236.95 21.64 233.43 25.96 232.05 27.66C231.8 26.64 231.66 25.97 231.47 25.29C230.19 20.61 227.24 17.54 222.52 16.41C217.77 15.27 213.68 16.69 210.65 20.47C206.84 25.21 203.09 30.01 199.4 34.86C198.42 36.14 197.45 37.42 196.48 38.71C195.68 39.77 194.79 40.71 193.84 41.53C185.35 48.79 171.52 46.47 166.38 35.86C165.72 34.51 165.68 33.53 166.78 32.41C167.9 31.28 168.83 29.97 170.07 28.46C170.29 29.36 170.45 30.01 170.61 30.65C171.83 35.55 174.92 38.68 179.81 39.79C184.58 40.87 188.63 39.3 191.65 35.55C192.38 34.64 193.11 33.72 193.83 32.81C194.3 32.22 194.77 31.63 195.23 31.04C198.53 26.84 201.78 22.59 205 18.32C211.57 9.56002 221.6 7.87002 230.68 14.1C230.91 14.26 231.17 14.39 231.76 14.74C231.81 13.79 231.87 13.05 231.87 12.31C231.87 12 231.88 11.72 231.92 11.47C232.43 7.14002 237.01 10.71 237.49 17.46C237.51 17.77 237.52 18.1 237.53 18.42V18.41Z" fill="url(#paint8_linear_3_209)"/>
<path d="M245.01 16.12C239.93 22.3 234.17 29.52 229.05 35.66C226.07 39.23 222.15 40.77 217.57 39.85C212.84 38.9 209.72 35.96 208.25 31.33C208.02 30.6 207.86 29.84 207.58 28.77C206.43 30.23 205.55 31.57 204.46 32.7C203.28 33.92 203.41 34.99 204.14 36.39C210.04 47.67 225.84 49 233.82 38.92C238.69 32.77 243.69 26.71 248.73 20.7C251.73 17.12 253.48 14.62 259.78 15.72C263.64 16.39 252.94 6.47002 245 16.13H245.01V16.12Z" fill="url(#paint9_linear_3_209)"/>
<path d="M237.49 1.59V19.41C237.44 19.91 237.35 20.38 237.2 20.82C236.93 21.23 236.45 21.5 235.91 21.5H233.51C232.63 21.5 231.92 20.79 231.92 19.91V1.58C231.92 0.71 232.63 0 233.51 0H235.91C236.79 0 237.5 0.71 237.5 1.58L237.49 1.59Z" fill="url(#paint10_linear_3_209)"/>
<path d="M161.44 32.61V44.11C161.44 44.99 160.73 45.69 159.85 45.69H157.45C156.57 45.69 155.87 44.99 155.87 44.11V32.61C155.87 32.42 155.9 32.25 155.96 32.08C156.19 31.81 156.42 31.52 156.65 31.24C156.88 31.1 157.16 31.02 157.45 31.02H159.85C160.73 31.02 161.44 31.73 161.44 32.61Z" fill="url(#paint11_linear_3_209)"/>
<path d="M199.39 32.61V44.11C199.39 44.99 198.68 45.69 197.81 45.69H195.4C194.53 45.69 193.82 44.99 193.82 44.11V32.8C194.29 32.21 194.76 31.62 195.22 31.03H197.81C198.68 31.03 199.39 31.74 199.39 32.62V32.61Z" fill="url(#paint12_linear_3_209)"/>
<path d="M199.27 12.92V21.56L198.72 22.2C198.58 22.37 198.42 22.55 198.26 22.73L197.9 23.15H197.89C197.82 23.15 197.75 23.15 197.68 23.15H195.28C194.4 23.15 193.7 22.44 193.7 21.56V12.9C193.7 12.03 194.4 11.32 195.28 11.32H197.68C198.56 11.32 199.27 12.03 199.27 12.9V12.92Z" fill="url(#paint13_linear_3_209)"/>
<path d="M236.29 31.02H233.88C233.007 31.02 232.3 31.7274 232.3 32.6V44.11C232.3 44.9826 233.007 45.69 233.88 45.69H236.29C237.163 45.69 237.87 44.9826 237.87 44.11V32.6C237.87 31.7274 237.163 31.02 236.29 31.02Z" fill="url(#paint14_linear_3_209)"/>
<path d="M270.47 30.81C269.66 29.51 268.33 28.38 266.48 27.4C264.63 26.42 262.11 25.61 258.92 24.97C256.63 24.51 254.88 24.03 253.7 23.54C252.51 23.05 251.71 22.5 251.31 21.88C250.91 21.26 250.71 20.58 250.71 19.81C250.71 18.58 251.35 17.64 252.65 17.01C253.95 16.37 255.53 16.05 257.41 16.05C259.02 16.05 260.45 16.24 261.68 16.63C262.91 17.01 264.06 17.71 265.12 18.73C265.76 19.33 266.54 19.71 267.48 19.88C268.41 20.05 269.22 19.9 269.9 19.43C270.58 18.92 270.94 18.29 270.98 17.55C271.02 16.81 270.75 16.09 270.15 15.42C268.87 13.85 267.15 12.61 264.99 11.72C262.82 10.82 260.33 10.38 257.53 10.38C255.36 10.38 253.28 10.73 251.28 11.43C249.29 12.13 247.65 13.2 246.37 14.62C246.28 14.73 246.18 14.84 246.09 14.95C246.03 15.02 246.03 15.03 246.09 14.95C245.01 16.32 244.46 18 244.46 19.99C244.46 21.6 244.87 23.05 245.7 24.33C246.13 25.01 246.69 25.65 247.36 26.24C249.29 27.94 252.41 29.22 256.7 30.07C260.01 30.67 262.3 31.43 263.55 32.36C264.81 33.3 265.41 34.4 265.37 35.68C265.33 36.96 264.66 37.99 263.36 38.8C262.06 39.61 260.18 40.01 257.71 40.01C255.76 40.01 253.98 39.66 252.39 38.96C250.8 38.26 249.64 37.5 248.92 36.69C248.32 36.05 247.61 35.69 246.78 35.58C245.95 35.47 245.11 35.76 244.27 36.44C243.55 37 243.13 37.71 243.03 38.58C242.92 39.45 243.19 40.23 243.83 40.91C245.23 42.31 247.2 43.47 249.73 44.38C252.26 45.3 255.01 45.75 257.98 45.75C260.95 45.75 263.52 45.28 265.54 44.35C267.56 43.42 269.08 42.16 270.13 40.59C271.18 39.02 271.7 37.25 271.7 35.3C271.7 33.6 271.29 32.1 270.49 30.81H270.47Z" fill="url(#paint15_linear_3_209)"/>
<path d="M44.96 12.48V24.21L39.46 30.98V12.49C39.46 10.97 40.69 9.73999 42.21 9.73999C42.97 9.73999 43.66 10.05 44.16 10.54C44.66 11.03 44.96 11.73 44.96 12.49V12.48Z" fill="url(#paint16_linear_3_209)"/>
<path d="M12.57 45.43C5.63999 45.43 0 39.7 0 32.66V12.48C0 10.96 1.23 9.72998 2.75 9.72998C4.27 9.72998 5.5 10.96 5.5 12.48V32.66C5.5 36.67 8.66999 39.93 12.57 39.93C16.47 39.93 19.64 36.67 19.64 32.66V12.48C19.64 10.96 20.87 9.72998 22.39 9.72998C23.91 9.72998 25.14 10.96 25.14 12.48V32.66C25.14 39.7 19.5 45.43 12.57 45.43Z" fill="url(#paint17_linear_3_209)"/>
<path d="M281.97 21.83V21.55C282.05 19.29 282.6 17.27 283.6 15.53C284.62 13.76 286.03 12.39 287.79 11.41C289.53 10.45 291.55 9.96002 293.78 9.96002C296.01 9.96002 297.96 10.42 299.69 11.32C301.47 12.25 302.86 13.54 303.86 15.17C303.97 15.35 304.07 15.52 304.16 15.71L299.98 19.81C299.81 18.55 299.28 17.51 298.37 16.67C297.21 15.6 295.72 15.08 293.82 15.08C291.92 15.08 290.34 15.65 289.14 16.83C287.93 18.01 287.31 19.58 287.23 21.63L287.21 21.86C287.2 23.29 286.03 24.45 284.58 24.45C283.13 24.45 281.95 23.27 281.95 21.81L281.97 21.83Z" fill="url(#paint18_linear_3_209)"/>
<path d="M306.18 42.61C306.18 43.33 305.88 43.99 305.41 44.46C304.94 44.93 304.27 45.23 303.56 45.23H284.31C282.78 45.23 281.53 43.98 281.53 42.44C281.53 41.67 281.85 40.92 282.42 40.4L293.2 30.45L295.26 28.56C295.26 28.56 295.39 28.43 295.65 28.18C296.29 27.6 296.85 27.01 297.36 26.46C297.37 26.46 297.39 26.44 297.4 26.42L305.17 18.65C305.29 19.32 305.36 20.02 305.36 20.75C305.36 22.77 304.83 24.76 303.77 26.66C302.77 28.48 301.2 30.38 299.12 32.3L290.73 39.98H303.55C305 39.98 306.18 41.15 306.18 42.61Z" fill="url(#paint19_linear_3_209)"/>
<path d="M334.17 12.48V32.66C334.17 39.7 328.53 45.43 321.59 45.43C314.65 45.43 309.02 39.7 309.02 32.66V22.41C304.61 26.82 299.13 32.3 299.12 32.31L294.3 36.73L290.5 32.93L309.01 14.76C309.01 14.76 310.23 13.26 311.76 13.26C312.52 13.26 313.21 13.57 313.7 14.07C314.19 14.57 314.51 15.25 314.51 16.01V32.66C314.51 36.67 317.69 39.93 321.58 39.93C325.47 39.93 328.65 36.66 328.65 32.66V12.48C328.65 10.96 329.89 9.72998 331.4 9.72998C332.16 9.72998 332.85 10.04 333.35 10.54C333.85 11.04 334.16 11.72 334.16 12.48H334.17Z" fill="url(#paint20_linear_3_209)"/>
<path d="M22.33 74.2799C21.48 73.7799 20.82 73.0999 20.34 72.2299C19.86 71.3599 19.63 70.3599 19.63 69.2399C19.63 68.1199 19.87 67.1199 20.34 66.2499C20.81 65.3799 21.48 64.6999 22.33 64.2099C23.18 63.7199 24.15 63.4799 25.24 63.4799C26.54 63.4799 27.69 63.8399 28.69 64.5499C29.68 65.2699 30.33 66.2199 30.65 67.4099H29.4C29.05 66.5399 28.5 65.8699 27.77 65.3899C27.04 64.9099 26.2 64.6699 25.25 64.6699C24.4 64.6699 23.64 64.8599 22.97 65.2399C22.3 65.6199 21.79 66.1599 21.42 66.8599C21.05 67.5599 20.87 68.3499 20.87 69.2399C20.87 70.1299 21.05 70.9299 21.42 71.6199C21.79 72.3199 22.31 72.8599 22.97 73.2499C23.64 73.6399 24.39 73.8299 25.25 73.8299C26.26 73.8299 27.13 73.5699 27.88 73.0399C28.62 72.5199 29.15 71.7999 29.46 70.8899H30.76C30.39 72.1799 29.72 73.1899 28.74 73.9199C27.76 74.6499 26.6 75.0199 25.25 75.0199C24.16 75.0199 23.19 74.7699 22.34 74.2799H22.33Z" fill="white"/>
<path d="M36.66 63.7499H37.7L37.83 66.2199C38.2 65.3799 38.71 64.7599 39.37 64.3599C40.03 63.9599 40.86 63.7499 41.87 63.7499H42.78V64.8999H41.82C40.59 64.8999 39.62 65.2899 38.93 66.0799C38.24 66.8699 37.89 68.0699 37.89 69.6899V74.7499H36.66V63.7499Z" fill="white"/>
<path d="M49.32 74.2899C48.47 73.7999 47.81 73.1199 47.34 72.2499C46.87 71.3799 46.64 70.3699 46.64 69.2399C46.64 68.1099 46.88 67.1199 47.35 66.2499C47.82 65.3799 48.49 64.6999 49.34 64.2099C50.19 63.7199 51.17 63.4799 52.28 63.4799C53.39 63.4799 54.41 63.7399 55.28 64.2699C56.14 64.7999 56.8 65.5299 57.26 66.4799C57.71 67.4299 57.93 68.5199 57.9 69.7599H47.9C48.01 71.0099 48.46 71.9999 49.25 72.7499C50.04 73.4899 51.04 73.8699 52.26 73.8699C53.15 73.8699 53.94 73.6699 54.62 73.2699C55.3 72.8699 55.83 72.3199 56.19 71.6099L57.57 71.6299C57.14 72.6799 56.46 73.5099 55.52 74.1199C54.58 74.7299 53.49 75.0299 52.26 75.0299C51.15 75.0299 50.18 74.7899 49.32 74.2999V74.2899ZM56.68 68.6699C56.54 67.4199 56.07 66.4399 55.28 65.7199C54.49 64.9999 53.49 64.6499 52.28 64.6499C51.07 64.6499 50.05 65.0199 49.26 65.7499C48.47 66.4799 48.01 67.4599 47.9 68.6699H56.68Z" fill="white"/>
<path d="M64.09 74.0399C63.35 73.4499 62.97 72.6499 62.97 71.6499C62.97 70.6499 63.31 69.8999 63.99 69.3199C64.67 68.7399 65.58 68.4599 66.71 68.4599H71.56V67.6699C71.56 66.7499 71.25 66.0099 70.63 65.4599C70.01 64.9099 69.19 64.6299 68.17 64.6299C67.35 64.6299 66.63 64.8299 66.02 65.2099C65.41 65.5999 64.99 66.1299 64.77 66.7899H63.52C63.79 65.7699 64.34 64.9599 65.17 64.3699C66 63.7799 67 63.4799 68.16 63.4799C69.07 63.4799 69.87 63.6499 70.57 63.9999C71.27 64.3499 71.82 64.8299 72.21 65.4599C72.6 66.0799 72.79 66.7999 72.79 67.6099V74.7599H71.77L71.64 72.8699C71.16 73.5399 70.53 74.0499 69.75 74.3999C68.97 74.7499 68.09 74.9299 67.11 74.9299C65.83 74.9299 64.82 74.6399 64.08 74.0499L64.09 74.0399ZM65 73.2199C65.53 73.6199 66.25 73.8199 67.16 73.8199C68 73.8199 68.75 73.6599 69.43 73.3299C70.1 72.9999 70.63 72.5499 71.01 71.9699C71.39 71.3899 71.58 70.7399 71.58 70.0099V69.5399H66.75C66 69.5399 65.39 69.7299 64.91 70.1099C64.43 70.4899 64.2 70.9999 64.2 71.6199C64.2 72.2899 64.47 72.8199 65 73.2199Z" fill="white"/>
<path d="M80.92 73.78C80.31 73.13 80.01 72.19 80.01 70.94V64.88H77.61V63.75H79.01C79.42 63.75 79.7 63.68 79.86 63.55C80.02 63.42 80.12 63.14 80.16 62.73L80.27 61.05H81.25V63.75H85.06V64.88H81.25V70.9C81.25 71.81 81.44 72.48 81.83 72.91C82.22 73.34 82.83 73.56 83.65 73.56H85.2V74.75H83.6C82.42 74.75 81.53 74.43 80.92 73.78Z" fill="white"/>
<path d="M92.24 74.2899C91.39 73.7999 90.73 73.1199 90.26 72.2499C89.79 71.3799 89.56 70.3699 89.56 69.2399C89.56 68.1099 89.8 67.1199 90.27 66.2499C90.74 65.3799 91.41 64.6999 92.26 64.2099C93.11 63.7199 94.09 63.4799 95.2 63.4799C96.31 63.4799 97.33 63.7399 98.2 64.2699C99.07 64.7999 99.72 65.5299 100.18 66.4799C100.63 67.4299 100.85 68.5199 100.82 69.7599H90.82C90.93 71.0099 91.38 71.9999 92.17 72.7499C92.96 73.4899 93.96 73.8699 95.18 73.8699C96.07 73.8699 96.86 73.6699 97.54 73.2699C98.22 72.8699 98.75 72.3199 99.11 71.6099L100.49 71.6299C100.07 72.6799 99.38 73.5099 98.44 74.1199C97.5 74.7299 96.41 75.0299 95.18 75.0299C94.07 75.0299 93.1 74.7899 92.24 74.2999V74.2899ZM99.6 68.6699C99.46 67.4199 98.99 66.4399 98.2 65.7199C97.41 64.9999 96.41 64.6499 95.2 64.6499C93.99 64.6499 92.97 65.0199 92.18 65.7499C91.39 66.4799 90.93 67.4599 90.82 68.6699H99.6Z" fill="white"/>
<path d="M113.34 77.8299H114.25C114.79 77.8299 115.21 77.7799 115.52 77.6899C115.82 77.5999 116.08 77.4299 116.28 77.1999C116.48 76.9699 116.68 76.6099 116.88 76.1299L117.5 74.5799L112.27 63.7499H113.65L116.24 69.1699L118.13 73.0799L119.7 69.1699L121.93 63.7499H123.23L117.98 76.5999C117.72 77.2399 117.44 77.7299 117.14 78.0799C116.84 78.4299 116.47 78.6699 116.04 78.7999C115.61 78.9299 115.06 78.9999 114.38 78.9999H113.34V77.8299Z" fill="white"/>
<path d="M129.82 74.2899C128.94 73.7999 128.26 73.1199 127.77 72.2399C127.28 71.3599 127.04 70.3599 127.04 69.2399C127.04 68.1199 127.28 67.1199 127.77 66.2499C128.26 65.3799 128.94 64.6999 129.82 64.2099C130.7 63.7199 131.7 63.4799 132.82 63.4799C133.94 63.4799 134.94 63.7299 135.81 64.2099C136.68 64.6999 137.36 65.3799 137.85 66.2499C138.34 67.1199 138.58 68.1199 138.58 69.2399C138.58 70.3599 138.33 71.3599 137.85 72.2399C137.36 73.1199 136.68 73.7999 135.81 74.2899C134.94 74.7799 133.94 75.0199 132.82 75.0199C131.7 75.0199 130.7 74.7799 129.82 74.2899ZM128.84 71.6199C129.22 72.3199 129.76 72.8599 130.45 73.2499C131.14 73.6399 131.93 73.8299 132.82 73.8299C133.71 73.8299 134.48 73.6399 135.17 73.2499C135.86 72.8599 136.39 72.3199 136.78 71.6199C137.16 70.9299 137.35 70.1299 137.35 69.2399C137.35 68.3499 137.16 67.5499 136.78 66.8599C136.4 66.1699 135.86 65.6299 135.17 65.2399C134.48 64.8599 133.7 64.6699 132.82 64.6699C131.94 64.6699 131.14 64.8599 130.45 65.2399C129.76 65.6199 129.23 66.1599 128.84 66.8599C128.46 67.5599 128.27 68.3499 128.27 69.2399C128.27 70.1299 128.46 70.9299 128.84 71.6199Z" fill="white"/>
<path d="M145.56 73.6199C144.74 72.6799 144.33 71.4199 144.33 69.8299V63.7499H145.56V69.7299C145.56 70.9899 145.88 71.9899 146.51 72.7299C147.14 73.4699 148 73.8399 149.07 73.8399C149.82 73.8399 150.49 73.6599 151.07 73.2899C151.65 72.9199 152.11 72.3999 152.43 71.7399C152.76 71.0699 152.92 70.3099 152.92 69.4399V63.7599H154.15V74.7599H153.13L153 72.6099C152.57 73.3899 152 73.9899 151.29 74.4099C150.57 74.8299 149.78 75.0399 148.9 75.0399C147.5 75.0399 146.38 74.5699 145.56 73.6399V73.6199Z" fill="white"/>
<path d="M161.09 63.7499H162.13L162.26 66.2199C162.63 65.3799 163.14 64.7599 163.8 64.3599C164.46 63.9599 165.29 63.7499 166.3 63.7499H167.22V64.8999H166.26C165.03 64.8999 164.06 65.2899 163.37 66.0799C162.67 66.8699 162.33 68.0699 162.33 69.6899V74.7499H161.1V63.7499H161.09Z" fill="white"/>
<path d="M182.1 74.2899C181.22 73.7999 180.54 73.1199 180.05 72.2399C179.56 71.3599 179.32 70.3599 179.32 69.2399C179.32 68.1199 179.56 67.1199 180.05 66.2499C180.54 65.3799 181.22 64.6999 182.1 64.2099C182.98 63.7199 183.98 63.4799 185.1 63.4799C186.22 63.4799 187.22 63.7299 188.09 64.2099C188.96 64.6999 189.64 65.3799 190.13 66.2499C190.62 67.1199 190.86 68.1199 190.86 69.2399C190.86 70.3599 190.61 71.3599 190.13 72.2399C189.64 73.1199 188.96 73.7999 188.09 74.2899C187.22 74.7799 186.22 75.0199 185.1 75.0199C183.98 75.0199 182.98 74.7799 182.1 74.2899ZM181.13 71.6199C181.51 72.3199 182.05 72.8599 182.74 73.2499C183.43 73.6399 184.22 73.8299 185.11 73.8299C186 73.8299 186.77 73.6399 187.46 73.2499C188.15 72.8599 188.68 72.3199 189.07 71.6199C189.45 70.9299 189.64 70.1299 189.64 69.2399C189.64 68.3499 189.45 67.5499 189.07 66.8599C188.69 66.1699 188.15 65.6299 187.46 65.2399C186.77 64.8599 185.99 64.6699 185.11 64.6699C184.23 64.6699 183.43 64.8599 182.74 65.2399C182.05 65.6199 181.52 66.1599 181.13 66.8599C180.75 67.5599 180.56 68.3499 180.56 69.2399C180.56 70.1299 180.75 70.9299 181.13 71.6199Z" fill="white"/>
<path d="M194.7 63.7499H196.02L199.27 72.8999L200.82 68.8999L202.8 63.7499H203.95L205.95 68.8999L207.5 72.8999L210.78 63.7499H212.08L208.1 74.7499H206.91L205.02 69.8399L203.38 65.5599L199.85 74.7499H198.66L194.7 63.7499Z" fill="white"/>
<path d="M217.29 63.7499H218.33L218.44 65.8799C218.86 65.0999 219.44 64.4999 220.17 64.0899C220.9 63.6799 221.71 63.4699 222.61 63.4699C224.04 63.4699 225.17 63.9399 226 64.8699C226.83 65.7999 227.24 67.0699 227.24 68.6599V74.7399H226.01V68.7599C226.01 67.4999 225.69 66.4999 225.05 65.7599C224.41 65.0199 223.55 64.6499 222.46 64.6499C221.69 64.6499 221.01 64.8299 220.42 65.1999C219.83 65.5699 219.36 66.0799 219.03 66.7399C218.7 67.3999 218.53 68.1599 218.53 69.0299V74.7299H217.3V63.7299L217.29 63.7499Z" fill="white"/>
<path d="M245.31 74.3699C244.49 73.9299 243.85 73.33 243.36 72.56L243.23 74.75H242.19V59.0099H243.42V65.84C243.92 65.09 244.57 64.51 245.37 64.1C246.17 63.69 247.07 63.4799 248.06 63.4799C249.15 63.4799 250.13 63.7299 250.98 64.2299C251.84 64.7299 252.5 65.41 252.98 66.28C253.46 67.15 253.69 68.14 253.69 69.25C253.69 70.36 253.45 71.3499 252.98 72.2299C252.5 73.11 251.84 73.8 250.98 74.29C250.12 74.79 249.15 75.03 248.06 75.03C247.04 75.03 246.12 74.8099 245.31 74.3699ZM243.96 71.6199C244.34 72.3199 244.88 72.86 245.57 73.25C246.26 73.64 247.05 73.8299 247.94 73.8299C248.83 73.8299 249.62 73.64 250.3 73.25C250.98 72.86 251.51 72.3199 251.9 71.6199C252.28 70.9299 252.47 70.13 252.47 69.24C252.47 68.35 252.28 67.57 251.9 66.88C251.52 66.19 250.98 65.64 250.3 65.25C249.62 64.86 248.83 64.67 247.94 64.67C247.05 64.67 246.26 64.87 245.57 65.25C244.88 65.64 244.35 66.18 243.96 66.88C243.58 67.58 243.39 68.36 243.39 69.24C243.39 70.12 243.58 70.9299 243.96 71.6199Z" fill="white"/>
<path d="M259.68 63.7499H260.72L260.85 66.2199C261.22 65.3799 261.73 64.7599 262.39 64.3599C263.05 63.9599 263.88 63.7499 264.89 63.7499H265.81V64.8999H264.85C263.62 64.8999 262.65 65.2899 261.96 66.0799C261.26 66.8699 260.92 68.0699 260.92 69.6899V74.7499H259.69V63.7499H259.68Z" fill="white"/>
<path d="M270.98 74.0399C270.24 73.4499 269.86 72.6499 269.86 71.6499C269.86 70.6499 270.2 69.8999 270.88 69.3199C271.56 68.7399 272.47 68.4599 273.6 68.4599H278.45V67.6699C278.45 66.7499 278.14 66.0099 277.53 65.4599C276.91 64.9099 276.09 64.6299 275.07 64.6299C274.25 64.6299 273.53 64.8299 272.92 65.2099C272.31 65.5999 271.89 66.1299 271.67 66.7899H270.42C270.69 65.7699 271.24 64.9599 272.07 64.3699C272.9 63.7799 273.9 63.4799 275.06 63.4799C275.97 63.4799 276.77 63.6499 277.47 63.9999C278.17 64.3499 278.72 64.8299 279.11 65.4599C279.5 66.0799 279.69 66.7999 279.69 67.6099V74.7599H278.67L278.54 72.8699C278.06 73.5399 277.43 74.0499 276.65 74.3999C275.87 74.7499 274.99 74.9299 274.01 74.9299C272.73 74.9299 271.72 74.6399 270.98 74.0499V74.0399ZM271.9 73.2199C272.43 73.6199 273.15 73.8199 274.06 73.8199C274.9 73.8199 275.65 73.6599 276.33 73.3299C277.01 72.9999 277.53 72.5499 277.91 71.9699C278.29 71.3899 278.48 70.7399 278.48 70.0099V69.5399H273.65C272.9 69.5399 272.29 69.7299 271.81 70.1099C271.34 70.4899 271.1 70.9999 271.1 71.6199C271.1 72.2899 271.37 72.8199 271.9 73.2199Z" fill="white"/>
<path d="M286.39 63.7499H287.43L287.54 65.8799C287.96 65.0999 288.54 64.4999 289.27 64.0899C290 63.6799 290.81 63.4699 291.71 63.4699C293.14 63.4699 294.27 63.9399 295.1 64.8699C295.93 65.7999 296.34 67.0699 296.34 68.6599V74.7399H295.11V68.7599C295.11 67.4999 294.79 66.4999 294.15 65.7599C293.51 65.0199 292.65 64.6499 291.56 64.6499C290.79 64.6499 290.11 64.8299 289.52 65.1999C288.93 65.5699 288.46 66.0799 288.13 66.7399C287.8 67.3999 287.63 68.1599 287.63 69.0299V74.7299H286.4V63.7299L286.39 63.7499Z" fill="white"/>
<path d="M304.8 74.2799C303.94 73.7799 303.27 73.0999 302.8 72.2199C302.33 71.3399 302.09 70.3499 302.09 69.2399C302.09 68.1299 302.33 67.1399 302.8 66.2699C303.27 65.3999 303.94 64.7099 304.8 64.2199C305.66 63.7199 306.63 63.4699 307.72 63.4699C308.71 63.4699 309.61 63.6799 310.41 64.0899C311.21 64.4999 311.86 65.0699 312.36 65.7899V58.9999H313.59V74.7399H312.57L312.42 72.5699C311.94 73.3399 311.29 73.9399 310.47 74.3699C309.65 74.7999 308.74 75.0199 307.72 75.0199C306.63 75.0199 305.65 74.7699 304.8 74.2799ZM303.9 71.6199C304.28 72.3199 304.82 72.8599 305.51 73.2499C306.2 73.6399 306.99 73.8299 307.88 73.8299C308.77 73.8299 309.54 73.6399 310.23 73.2499C310.92 72.8599 311.45 72.3199 311.84 71.6199C312.22 70.9299 312.41 70.1299 312.41 69.2399C312.41 68.3499 312.22 67.5699 311.84 66.8799C311.46 66.1899 310.92 65.6399 310.23 65.2499C309.54 64.8599 308.76 64.6699 307.88 64.6699C307 64.6699 306.2 64.8699 305.51 65.2499C304.82 65.6399 304.29 66.1799 303.9 66.8799C303.52 67.5799 303.33 68.3599 303.33 69.2399C303.33 70.1199 303.52 70.9299 303.9 71.6199Z" fill="white"/>
<defs>
<linearGradient id="paint0_linear_3_209" x1="-0.00998022" y1="27.64" x2="334.17" y2="27.64" gradientUnits="userSpaceOnUse">
<stop stop-color="#ED2032"/>
<stop offset="1" stop-color="#211F53"/>
</linearGradient>
<linearGradient id="paint1_linear_3_209" x1="-0.00996766" y1="26.24" x2="334.17" y2="26.24" gradientUnits="userSpaceOnUse">
<stop stop-color="#ED2032"/>
<stop offset="1" stop-color="#211F53"/>
</linearGradient>
<linearGradient id="paint2_linear_3_209" x1="-0.00999992" y1="27.86" x2="334.17" y2="27.86" gradientUnits="userSpaceOnUse">
<stop stop-color="#ED2032"/>
<stop offset="1" stop-color="#211F53"/>
</linearGradient>
<linearGradient id="paint3_linear_3_209" x1="-0.00995899" y1="28.24" x2="334.17" y2="28.24" gradientUnits="userSpaceOnUse">
<stop stop-color="#ED2032"/>
<stop offset="1" stop-color="#211F53"/>
</linearGradient>
<linearGradient id="paint4_linear_3_209" x1="-0.0102936" y1="38.96" x2="334.171" y2="38.96" gradientUnits="userSpaceOnUse">
<stop stop-color="#ED2032"/>
<stop offset="1" stop-color="#211F53"/>
</linearGradient>
<linearGradient id="paint5_linear_3_209" x1="-0.0100414" y1="11.87" x2="334.17" y2="11.87" gradientUnits="userSpaceOnUse">
<stop stop-color="#ED2032"/>
<stop offset="1" stop-color="#211F53"/>
</linearGradient>
<linearGradient id="paint6_linear_3_209" x1="-0.0100003" y1="27.58" x2="334.17" y2="27.58" gradientUnits="userSpaceOnUse">
<stop stop-color="#ED2032"/>
<stop offset="1" stop-color="#211F53"/>
</linearGradient>
<linearGradient id="paint7_linear_3_209" x1="-0.00934179" y1="10.75" x2="334.169" y2="10.75" gradientUnits="userSpaceOnUse">
<stop stop-color="#ED2032"/>
<stop offset="1" stop-color="#211F53"/>
</linearGradient>
<linearGradient id="paint8_linear_3_209" x1="-0.0100032" y1="27.66" x2="334.17" y2="27.66" gradientUnits="userSpaceOnUse">
<stop stop-color="#ED2032"/>
<stop offset="1" stop-color="#211F53"/>
</linearGradient>
<linearGradient id="paint9_linear_3_209" x1="-0.0100487" y1="28.81" x2="334.17" y2="28.81" gradientUnits="userSpaceOnUse">
<stop stop-color="#ED2032"/>
<stop offset="1" stop-color="#211F53"/>
</linearGradient>
<linearGradient id="paint10_linear_3_209" x1="-0.0107417" y1="10.75" x2="334.17" y2="10.75" gradientUnits="userSpaceOnUse">
<stop stop-color="#ED2032"/>
<stop offset="1" stop-color="#211F53"/>
</linearGradient>
<linearGradient id="paint11_linear_3_209" x1="-0.0102065" y1="38.36" x2="334.17" y2="38.36" gradientUnits="userSpaceOnUse">
<stop stop-color="#ED2032"/>
<stop offset="1" stop-color="#211F53"/>
</linearGradient>
<linearGradient id="paint12_linear_3_209" x1="-0.0091781" y1="38.36" x2="334.169" y2="38.36" gradientUnits="userSpaceOnUse">
<stop stop-color="#ED2032"/>
<stop offset="1" stop-color="#211F53"/>
</linearGradient>
<linearGradient id="paint13_linear_3_209" x1="-0.0102754" y1="17.25" x2="334.17" y2="17.25" gradientUnits="userSpaceOnUse">
<stop stop-color="#ED2032"/>
<stop offset="1" stop-color="#211F53"/>
</linearGradient>
<linearGradient id="paint14_linear_3_209" x1="-0.0103123" y1="38.36" x2="334.17" y2="38.36" gradientUnits="userSpaceOnUse">
<stop stop-color="#ED2032"/>
<stop offset="1" stop-color="#211F53"/>
</linearGradient>
<linearGradient id="paint15_linear_3_209" x1="-0.00987068" y1="28.07" x2="334.17" y2="28.07" gradientUnits="userSpaceOnUse">
<stop stop-color="#ED2032"/>
<stop offset="1" stop-color="#211F53"/>
</linearGradient>
<linearGradient id="paint16_linear_3_209" x1="-0.0100078" y1="20.36" x2="334.17" y2="20.36" gradientUnits="userSpaceOnUse">
<stop stop-color="#ED2032"/>
<stop offset="1" stop-color="#211F53"/>
</linearGradient>
<linearGradient id="paint17_linear_3_209" x1="0" y1="27.58" x2="334.18" y2="27.58" gradientUnits="userSpaceOnUse">
<stop stop-color="#ED2032"/>
<stop offset="1" stop-color="#211F53"/>
</linearGradient>
<linearGradient id="paint18_linear_3_209" x1="-0.0102817" y1="17.21" x2="334.17" y2="17.21" gradientUnits="userSpaceOnUse">
<stop stop-color="#ED2032"/>
<stop offset="1" stop-color="#211F53"/>
</linearGradient>
<linearGradient id="paint19_linear_3_209" x1="-0.00994868" y1="31.94" x2="334.17" y2="31.94" gradientUnits="userSpaceOnUse">
<stop stop-color="#ED2032"/>
<stop offset="1" stop-color="#211F53"/>
</linearGradient>
<linearGradient id="paint20_linear_3_209" x1="-0.00990436" y1="27.58" x2="334.17" y2="27.58" gradientUnits="userSpaceOnUse">
<stop stop-color="#ED2032"/>
<stop offset="1" stop-color="#211F53"/>
</linearGradient>
</defs>
</svg>
